<?xml version="1.0" encoding="UTF-8" standalone="no"?>
<svg width="36px" height="36px" viewBox="0 0 36 36" version="1.1" xmlns="http://www.w3.org/2000/svg" xmlns:xlink="http://www.w3.org/1999/xlink">
    <!-- Generator: Sketch 40.3 (33839) - http://www.bohemiancoding.com/sketch -->
    <title>wxc-icon-collect</title>
    <desc>Created with Sketch.</desc>
    <defs></defs>
    <g id="案例" stroke="none" stroke-width="1" fill="none" fill-rule="evenodd">
        <g id="收藏关注-copy" transform="translate(5.000000, 2.000000)">
            <g id="Group-5" transform="translate(0.000000, 0.395559)">
                <path d="M13.44,6.87954286 L15.2097959,10.4517878 L19.1477551,11.0264816 C19.8791837,11.137502 20.1730612,12.0321959 19.6440816,12.5481143 L16.7902041,15.3301551 L17.4628571,19.2550531 C17.5869388,19.9864816 16.8228571,20.5415837 16.1697959,20.1954612 L12.6432653,18.3407673 L9.11673469,20.1954612 C8.46367347,20.5415837 7.69959184,19.9864816 7.82367347,19.2550531 L8.49632653,15.3301551 L5.64244898,12.5481143 C5.12,12.0321959 5.40734694,11.137502 6.13877551,11.0264816 L10.0832653,10.4517878 L11.8465306,6.87954286 C12.1730612,6.21995102 13.1134694,6.21995102 13.44,6.87954286" id="Fill-1" fill="#00B642"></path>
                <path d="M19.6440816,12.5481143 C20.1730612,12.0321959 19.8791837,11.137502 19.1477551,11.0264816 L15.2097959,10.4517878 L13.44,6.87954286 C13.1134694,6.21995102 12.1730612,6.21995102 11.8465306,6.87954286 L10.0832653,10.4517878 L6.13877551,11.0264816 C5.40734694,11.137502 5.12,12.0321959 5.64244898,12.5481143 L8.49632653,15.3301551 L7.82367347,19.2550531 C7.69959184,19.9864816 8.46367347,20.5415837 9.11673469,20.1954612 L12.6432653,18.3407673 L16.1697959,20.1954612 C16.8228571,20.5415837 17.5869388,19.9864816 17.4628571,19.2550531 L16.7902041,15.3301551 L19.6440816,12.5481143 Z M25.1428571,1.06729796 L25.1428571,30.539951 C25.1428571,30.8860735 24.7836735,31.1211755 24.4636735,30.977502 L12.7477551,25.7921959 L0.999183673,30.8991347 C0.679183673,31.0362776 0.326530612,30.8011755 0.326530612,30.4550531 L0.326530612,1.06729796 C0.326530612,0.799542857 0.542040816,0.584032653 0.803265306,0.584032653 L24.6595918,0.584032653 C24.9273469,0.584032653 25.1428571,0.799542857 25.1428571,1.06729796 L25.1428571,1.06729796 Z" id="Fill-3" fill="#FFFFFF"></path>
            </g>
            <path d="M13.44,7.27510204 L15.2097959,10.8473469 L19.1477551,11.4220408 C19.8791837,11.5330612 20.1730612,12.4277551 19.6440816,12.9436735 L16.7902041,15.7257143 L17.4628571,19.6506122 C17.5869388,20.3820408 16.8228571,20.9371429 16.1697959,20.5910204 L12.6432653,18.7363265 L9.11673469,20.5910204 C8.46367347,20.9371429 7.69959184,20.3820408 7.82367347,19.6506122 L8.49632653,15.7257143 L5.64244898,12.9436735 C5.12,12.4277551 5.40734694,11.5330612 6.13877551,11.4220408 L10.0832653,10.8473469 L11.8465306,7.27510204 C12.1730612,6.6155102 13.1134694,6.6155102 13.44,7.27510204 L13.44,7.27510204 Z" id="Stroke-6" stroke="#005925" stroke-width="2" stroke-linecap="square"></path>
            <path d="M12.7477551,26.1877551 L24.4636735,31.3730612 C24.7836735,31.5167347 25.1428571,31.2816327 25.1428571,30.9355102 L25.1428571,1.46285714 C25.1428571,1.19510204 24.9273469,0.979591837 24.6595918,0.979591837 L0.803265306,0.979591837 C0.542040816,0.979591837 0.326530612,1.19510204 0.326530612,1.46285714 L0.326530612,30.8506122 C0.326530612,31.1967347 0.679183673,31.4318367 0.999183673,31.2946939 L12.7477551,26.1877551 L12.7477551,26.1877551 Z" id="Stroke-8" stroke="#005825" stroke-width="2" stroke-linejoin="bevel"></path>
        </g>
    </g>
</svg>