<?xml version="1.0" encoding="UTF-8" standalone="no"?>
<svg width="40px" height="40px" viewBox="0 0 40 40" version="1.1" xmlns="http://www.w3.org/2000/svg" xmlns:xlink="http://www.w3.org/1999/xlink">
    <!-- Generator: Sketch 40.1 (33804) - http://www.bohemiancoding.com/sketch -->
    <title>Slice Copy 10</title>
    <desc>Created with Sketch.</desc>
    <defs></defs>
    <g id="案例" stroke="none" stroke-width="1" fill="none" fill-rule="evenodd">
        <g id="Page-1" transform="translate(4.000000, 4.000000)" fill="#00B642">
            <path d="M25.3554174,24.7221073 C25.2216195,23.6936474 24.5945533,22.7847136 23.6784836,22.2905533 L18.9750411,19.7644488 C18.6021909,19.5682118 18.3640307,19.2024976 18.3381631,18.7805882 L18.2962397,18.1936613 C20.1016195,17.1536056 21.2112502,15.1930202 21.2112502,13.0049784 C21.2112502,9.73941742 18.6744418,7.08308293 15.5560585,7.08308293 C12.4332153,7.08308293 9.89194704,9.73941742 9.89194704,13.0049784 C9.89194704,15.1867763 11.0524209,17.2053408 12.8720725,18.2329087 L12.836393,18.7841561 C12.8105254,19.2024976 12.5723652,19.5682118 12.196839,19.7662328 L7.49518049,22.2905533 C6.5791108,22.7847136 5.95293659,23.6936474 5.81913868,24.7212153 L5.48999582,27.2152084 L5.4659122,27.9296892 C8.21412125,30.2524209 11.7151666,31.5315289 15.3241422,31.5315289 C19.1159749,31.5315289 22.7445742,30.1382467 25.5418425,27.6076822 L25.7157798,27.4506927 L25.3554174,24.7221073 Z" id="Fill-1"></path>
            <g id="Group-5" transform="translate(0.000000, 0.312284)">
                <path d="M15.324053,0.579701742 C6.87426899,0.579701742 -0.000267595819,7.45067038 -0.000267595819,15.8951024 C-0.000267595819,19.1044683 0.997864808,22.1889561 2.88709129,24.8131791 L3.54448502,25.7265728 L3.75410174,24.1361617 L3.75410174,24.1361617 C3.9744223,22.448524 5.00377422,20.9562314 6.50498676,20.146308 L9.97659652,18.2829491 L9.63496585,17.8637157 C8.45754425,16.4186983 7.80907038,14.582099 7.80907038,12.6928725 C7.80907038,8.27932544 11.2842481,4.68818955 15.5559693,4.68818955 C19.8223387,4.68818955 23.2939484,8.27932544 23.2939484,12.6928725 C23.2939484,14.5722871 22.6535024,16.3999666 21.4912446,17.8396321 L21.1531819,18.2579735 L24.663147,20.1436321 C26.1054885,20.9205519 27.1241366,22.3539735 27.3881645,23.9773882 L27.5745895,25.1253742 L28.2034397,24.1477575 C29.7974188,21.6707122 30.6394537,18.8172488 30.6394537,15.8951024 C30.6394537,7.45067038 23.769377,0.579701742 15.324053,0.579701742" id="Fill-3"></path>
            </g>
        </g>
    </g>
</svg>