<?xml version="1.0" encoding="UTF-8" standalone="no"?>
<svg width="50px" height="49px" viewBox="0 0 50 49" version="1.1" xmlns="http://www.w3.org/2000/svg" xmlns:xlink="http://www.w3.org/1999/xlink">
    <!-- Generator: Sketch 40.1 (33804) - http://www.bohemiancoding.com/sketch -->
    <title>高性 价比</title>
    <desc>Created with Sketch.</desc>
    <defs></defs>
    <g id="Page-1" stroke="none" stroke-width="1" fill="none" fill-rule="evenodd">
        <g id="高性-价比" transform="translate(1.000000, 1.000000)">
            <path d="M0.459497143,34.6119086 C0.978582857,38.79888 4.80349714,42.0519086 9.45195429,42.0519086 C14.0997257,42.0519086 17.9253257,38.79888 18.4444114,34.6119086 L0.459497143,34.6119086 Z" id="Fill-1" fill="#B8E986"></path>
            <path d="M0.459497143,34.6119086 C0.978582857,38.79888 4.80349714,42.0519086 9.45195429,42.0519086 C14.0997257,42.0519086 17.9253257,38.79888 18.4444114,34.6119086 L0.459497143,34.6119086 L0.459497143,34.6119086 Z" id="Stroke-3" stroke="#005825" stroke-width="2"></path>
            <path d="M27.2427429,7.27851429 C27.2427429,9.15462857 25.7218286,10.6748571 23.8464,10.6748571 C21.9702857,10.6748571 20.4500571,9.15462857 20.4500571,7.27851429 C20.4500571,5.4024 21.9702857,3.88217143 23.8464,3.88217143 C25.7218286,3.88217143 27.2427429,5.4024 27.2427429,7.27851429" id="Fill-5" fill="#EBEBF4"></path>
            <path d="M27.2427429,7.27851429 C27.2427429,9.15462857 25.7218286,10.6748571 23.8464,10.6748571 C21.9702857,10.6748571 20.4500571,9.15462857 20.4500571,7.27851429 C20.4500571,5.4024 21.9702857,3.88217143 23.8464,3.88217143 C25.7218286,3.88217143 27.2427429,5.4024 27.2427429,7.27851429 L27.2427429,7.27851429 Z" id="Stroke-7" stroke="#005825" stroke-width="2"></path>
            <path d="M4.59970286,13.9097143 L20.4499886,8.08731429" id="Stroke-9" stroke="#005825" stroke-width="2"></path>
            <path d="M26.9192229,5.82288 L42.7695086,0.324137143" id="Stroke-11" stroke="#005825" stroke-width="2"></path>
            <path d="M23.04,10.6749943 L23.04,46.5803657" id="Stroke-13" stroke="#005825" stroke-width="2"></path>
            <path d="M12.3630171,46.56096 L35.6533029,46.56096" id="Stroke-15" stroke="#434242" stroke-width="2"></path>
            <polyline id="Stroke-18" stroke="#005825" stroke-width="2" points="0.306925714 33.9506743 9.90555429 14.6759314 18.3528686 34.0274743"></polyline>
            <path d="M29.4915429,24.4289829 C30.0106286,28.6159543 33.8355429,31.8689829 38.484,31.8689829 C43.1317714,31.8689829 46.9573714,28.6159543 47.4764571,24.4289829 L29.4915429,24.4289829 Z" id="Fill-20" fill="#00B642"></path>
            <path d="M29.4915429,24.4289829 C30.0106286,28.6159543 33.8355429,31.8689829 38.484,31.8689829 C43.1317714,31.8689829 46.9573714,28.6159543 47.4764571,24.4289829 L29.4915429,24.4289829 L29.4915429,24.4289829 Z" id="Stroke-22" stroke="#005825" stroke-width="2"></path>
            <polyline id="Stroke-24" stroke="#005825" stroke-width="2" points="29.3389714 23.7678171 38.9376 4.49307429 47.3849143 23.8446171"></polyline>
        </g>
    </g>
</svg>