<?xml version="1.0" encoding="UTF-8" standalone="no"?>
<svg width="36px" height="36px" viewBox="0 0 36 36" version="1.1" xmlns="http://www.w3.org/2000/svg" xmlns:xlink="http://www.w3.org/1999/xlink">
    <!-- Generator: Sketch 40.3 (33839) - http://www.bohemiancoding.com/sketch -->
    <title>wxc-icon-directMessages</title>
    <desc>Created with Sketch.</desc>
    <defs></defs>
    <g id="案例" stroke="none" stroke-width="1" fill="none" fill-rule="evenodd">
        <g id="私信-copy" transform="translate(4.000000, 6.000000)">
            <g id="Group-5" transform="translate(0.000000, 0.616596)">
                <path d="M27.4519149,20.9374468 C27.4519149,22.1438298 26.5821277,23.1223404 25.5097872,23.1223404 L2.23404255,23.1223404 C1.16170213,23.1223404 0.29787234,22.1438298 0.29787234,20.9374468 L0.29787234,2.56691489 C0.29787234,1.91680851 0.548085106,1.3337234 0.953191489,0.938297872 L0.959148936,0.945 L13.8629787,12.338617 L26.8740426,1.05223404 L26.8919149,1.03882979 C27.2434043,1.43425532 27.4519149,1.97712766 27.4519149,2.56691489 L27.4519149,20.9374468 Z" id="Fill-1" fill="#FFFFFF"></path>
                <path d="M26.8740426,1.05223404 L13.8629787,12.338617 L0.959148936,0.945 L0.953191489,0.938297872 C1.29276596,0.589787234 1.73957447,0.388723404 2.23404255,0.388723404 L25.5097872,0.388723404 C26.0519149,0.388723404 26.5404255,0.636702128 26.8919149,1.03882979 L26.8740426,1.05223404 Z" id="Fill-3" fill="#00B642"></path>
            </g>
            <path d="M26.8919149,1.65542553 C27.2434043,2.05085106 27.4519149,2.5937234 27.4519149,3.18351064 L27.4519149,21.5540426 C27.4519149,22.7604255 26.5821277,23.7389362 25.5097872,23.7389362 L2.23404255,23.7389362 C1.16170213,23.7389362 0.29787234,22.7604255 0.29787234,21.5540426 L0.29787234,3.18351064 C0.29787234,2.53340426 0.548085106,1.95031915 0.953191489,1.55489362 C1.29276596,1.20638298 1.73957447,1.00531915 2.23404255,1.00531915 L25.5097872,1.00531915 C26.0519149,1.00531915 26.5404255,1.25329787 26.8919149,1.65542553 L26.8919149,1.65542553 Z" id="Stroke-6" stroke="#005825" stroke-width="2" stroke-linejoin="bevel"></path>
            <polyline id="Stroke-8" stroke="#005825" stroke-width="2" stroke-linejoin="bevel" points="0.959148936 1.56159574 13.8629787 12.9552128 26.8740426 1.66882979"></polyline>
        </g>
    </g>
</svg>