<?xml version="1.0" encoding="UTF-8" standalone="no"?>
<svg width="70px" height="70px" viewBox="0 0 70 70" version="1.1" xmlns="http://www.w3.org/2000/svg" xmlns:xlink="http://www.w3.org/1999/xlink">
    <!-- Generator: Sketch 40.1 (33804) - http://www.bohemiancoding.com/sketch -->
    <title>QQ空间</title>
    <desc>Created with Sketch.</desc>
    <defs>
        <path d="M16.0008333,14.6016667 C16.0008333,14.6016667 0.584166667,15.695 0.0925,16.9316667 C-0.398333333,18.17 11.6033333,28.2458333 11.6033333,28.2458333 C11.6033333,28.2458333 8.05833333,43.5491667 8.88666667,44.22 C9.71416667,44.8908333 23.115,36.6783333 23.115,36.6783333 C23.115,36.6783333 36.4116667,45.175 37.3433333,44.22 C38.0175,43.5291667 36.2966667,35.5516667 35.29,31.1416667 C35.2833333,31.1116667 36.0425,30.8525 36.8108333,30.7066667 C37.515,30.5725 38.1566667,30.2433333 38.15,30.2166667 C38.1475,30.2058333 34.9466667,30.9366667 25.545,31.1416667 C16.1441667,31.3458333 13.5,30.8733333 13.5,30.8733333 L26.7475,20.93 C26.7475,20.93 22.63,20.1708333 19.5025,19.8866667 C15.0333333,19.48 11.1166667,19.4891667 11.6033333,19.365 C12.3791667,19.1658333 17.81,18.6533333 23.115,18.8425 C27.9591667,19.0158333 32.75,19.8866667 32.75,19.8866667 L19.5025,29.4108333 C19.5025,29.4108333 22.395,29.86 24.7991667,29.9525 C29.375,30.13 34.9575,30.0016667 34.9466667,29.9525 C34.7758333,29.2241667 34.6266667,28.2458333 34.6266667,28.2458333 C34.6266667,28.2458333 46.5641667,18.1633333 46.1375,16.9316667 C45.7116667,15.7008333 30.2291667,14.6016667 30.2291667,14.6016667 C30.2291667,14.6016667 24.5025,0.0675 23.115,0.0675 C21.7275,0.0675 16.0008333,14.6016667 16.0008333,14.6016667 L16.0008333,14.6016667 Z" id="path-1"></path>
    </defs>
    <g id="案例" stroke="none" stroke-width="1" fill="none" fill-rule="evenodd">
        <g id="设计师5-copy-4" transform="translate(-285.000000, -966.000000)">
            <g id="QQ空间" transform="translate(285.000000, 966.000000)">
                <rect id="Rectangle-740-Copy-4" fill="#F6A623" x="0" y="0" width="70" height="70" rx="35"></rect>
                <g id="Group-36" transform="translate(11.666667, 12.500000)">
                    <mask id="mask-2" fill="white">
                        <use xlink:href="#path-1"></use>
                    </mask>
                    <g id="Clip-35"></g>
                    <polygon id="Fill-34" fill="#FFFFFF" mask="url(#mask-2)" points="-4.52916667 48.9025 50.7558333 48.9025 50.7558333 -4.53916667 -4.52916667 -4.53916667"></polygon>
                </g>
            </g>
        </g>
    </g>
</svg>