<?xml version="1.0" encoding="UTF-8" standalone="no"?>
<svg width="40px" height="42px" viewBox="0 0 40 42" version="1.1" xmlns="http://www.w3.org/2000/svg" xmlns:xlink="http://www.w3.org/1999/xlink">
    <!-- Generator: Sketch 40.1 (33804) - http://www.bohemiancoding.com/sketch -->
    <title>Page 1</title>
    <desc>Created with Sketch.</desc>
    <defs></defs>
    <g id="案例" stroke="none" stroke-width="1" fill="none" fill-rule="evenodd" stroke-linejoin="bevel">
        <g id="项目成员" transform="translate(-571.000000, -188.000000)" stroke="#61676F" stroke-width="2">
            <g id="Page-1" transform="translate(572.000000, 189.000000)">
                <path d="M0.444444444,8.31155556 C0.444444444,3.96666667 3.96711111,0.444888889 8.31111111,0.444888889 C12.656,0.444888889 16.1786667,3.96666667 16.1786667,8.31155556 C16.1786667,12.06 13.5564444,15.1968889 10.0462222,15.9871111" id="Stroke-1"></path>
                <path d="M22.3751111,29.3176889 C23.3946667,26.1550222 26.3626667,23.8670222 29.864,23.8670222 C34.2088889,23.8670222 37.7315556,27.3896889 37.7315556,31.7345778 C37.7315556,34.2972444 36.5057778,36.5745778 34.608,38.0110222" id="Stroke-3"></path>
                <path d="M28.8134222,39.5332444 C12.7734222,37.5705778 0.460533333,23.9350222 0.460533333,7.36435556" id="Stroke-5"></path>
                <path d="M22.7383111,29.4843556 C17.1400889,26.8168 11.9969778,21.4488 9.85653333,15.5936889" id="Stroke-7"></path>
            </g>
        </g>
    </g>
</svg>