<?xml version="1.0" encoding="UTF-8" standalone="no"?>
<svg width="35px" height="37px" viewBox="0 0 35 37" version="1.1" xmlns="http://www.w3.org/2000/svg" xmlns:xlink="http://www.w3.org/1999/xlink">
    <!-- Generator: Sketch 40.1 (33804) - http://www.bohemiancoding.com/sketch -->
    <title>加关注</title>
    <desc>Created with Sketch.</desc>
    <defs></defs>
    <g id="案例" stroke="none" stroke-width="1" fill="none" fill-rule="evenodd">
        <g id="设计师-copy" transform="translate(-556.000000, -530.000000)" stroke="#00B642" stroke-width="2">
            <g id="加关注" transform="translate(557.000000, 531.000000)">
                <path d="M13.2981058,18.4141419 C10.259551,16.9255226 8.1520929,13.6848516 8.1520929,9.9264 C8.1520929,4.75767742 12.1376413,0.567741935 17.053151,0.567741935 C21.9686606,0.567741935 25.954209,4.75767742 25.954209,9.9264 C25.954209,13.6746323 23.8581058,16.9084903 20.8309058,18.4027871" id="Stroke-1"></path>
                <path d="M13.2819819,17.8185806 L13.1479948,19.8283871 C13.0832723,20.8026323 12.5200723,21.6758194 11.6593755,22.1368258 L3.62696258,26.4425806 C2.27914323,27.1658839 1.36507871,28.4955355 1.17091097,30.0125419 L0.644046452,34.1513806 L24.754911,34.1513806" id="Stroke-3"></path>
                <path d="M20.9120929,17.8185806 L21.04608,19.8283871 C21.1108026,20.8026323 21.6740026,21.6758194 22.5346994,22.1368258 L27.5762477,24.8392774" id="Stroke-5"></path>
                <path d="M25.6256945,30.4 L33.9185548,30.4" id="Stroke-7"></path>
                <path d="M29.6,35.2000001 L29.6,26.3016671" id="Stroke-10"></path>
            </g>
        </g>
    </g>
</svg>