<?xml version="1.0" encoding="UTF-8" standalone="no"?>
<svg width="40px" height="40px" viewBox="0 0 40 40" version="1.1" xmlns="http://www.w3.org/2000/svg" xmlns:xlink="http://www.w3.org/1999/xlink">
    <!-- Generator: Sketch 40.1 (33804) - http://www.bohemiancoding.com/sketch -->
    <title>Slice Copy 11</title>
    <desc>Created with Sketch.</desc>
    <defs></defs>
    <g id="案例" stroke="none" stroke-width="1" fill="none" fill-rule="evenodd">
        <g id="部落2-copy" transform="translate(1.000000, 7.000000)">
            <path d="M21.4953045,13.9563636 L21.5730318,15.0877273 C21.6162136,15.8218182 22.0480318,16.4868182 22.7043955,16.8409091 L28.8103045,20.1140909 C29.8380318,20.6668182 30.5289409,21.6772727 30.6757591,22.8345455 L31.0816682,25.9781818 L6.05348636,25.9781818 L6.45075909,22.8345455 C6.59757727,21.6772727 7.29712273,20.6668182 8.32485,20.1140909 L14.4307591,16.8409091 C15.0871227,16.4868182 15.5103045,15.8218182 15.5621227,15.0877273 L15.63985,13.9909091 C13.3512136,12.8509091 11.7621227,10.3981818 11.7621227,7.55681818 C11.7621227,3.61863636 14.7934864,0.431818182 18.5330318,0.431818182 C22.2725773,0.431818182 25.3039409,3.61863636 25.3039409,7.55681818 C25.3039409,10.3722727 23.7493955,12.8077273 21.4953045,13.9563636" id="Fill-1" fill="#00B642"></path>
            <path d="M15.6743955,14.0081818 C15.6657591,13.9995455 15.6484864,13.9995455 15.63985,13.9909091 C13.3512136,12.8509091 11.7621227,10.3981818 11.7621227,7.55681818 C11.7621227,3.61863636 14.7934864,0.431818182 18.5330318,0.431818182 C22.2725773,0.431818182 25.3039409,3.61863636 25.3039409,7.55681818 C25.3039409,10.3722727 23.7493955,12.8077273 21.4953045,13.9563636 C21.4693955,13.9736364 21.43485,13.9822727 21.4089409,13.9995455" id="Stroke-3" stroke="#00B642"></path>
            <path d="M15.6657591,13.5590909 L15.63985,13.9909091 L15.5621227,15.0877273 C15.5103045,15.8218182 15.0871227,16.4868182 14.4307591,16.8409091 L8.32485,20.1140909 C7.29712273,20.6668182 6.59757727,21.6772727 6.45075909,22.8345455 L6.05348636,25.9781818 L31.0816682,25.9781818 L30.6757591,22.8345455 C30.5289409,21.6772727 29.8380318,20.6668182 28.8103045,20.1140909 L22.7043955,16.8409091 C22.0480318,16.4868182 21.6162136,15.8218182 21.5730318,15.0877273 L21.4953045,13.9563636 L21.4693955,13.5590909" id="Stroke-5" stroke="#00B642"></path>
            <path d="M4.02212727,22.5276091 C4.2674,20.5913364 5.44367273,18.8839273 7.16662727,17.9572455 L12.7232636,14.9785636 C10.6047636,13.1830636 9.31362727,10.4548364 9.31362727,7.55733636 C9.31362727,5.73160909 9.81712727,4.02938182 10.6747182,2.57588182 C10.4277182,2.54133636 10.1781273,2.51629091 9.92249091,2.51629091 C6.86262727,2.51629091 4.37276364,5.1262 4.37276364,8.33374545 C4.37276364,10.4617455 5.50671818,12.4360182 7.28494545,13.4464727 L7.24521818,13.9966091 C7.21671818,14.4102909 6.98180909,14.7738818 6.61735455,14.9707909 L2.00121818,17.4451091 C1.10217273,17.9287455 0.488990909,18.8200182 0.362036364,19.8278818 L0.000172727273,22.6891091 L4.0014,22.6891091 L4.02212727,22.5276091 Z" id="Fill-7" fill="#00B642"></path>
            <path d="M33.3120955,22.5276091 C33.0668227,20.5913364 31.89055,18.8839273 30.1675955,17.9572455 L24.6109591,14.9785636 C26.7294591,13.1830636 28.0205955,10.4548364 28.0205955,7.55733636 C28.0205955,5.73160909 27.5170955,4.02938182 26.6595045,2.57588182 C26.9065045,2.54133636 27.1560955,2.51629091 27.4117318,2.51629091 C30.4715955,2.51629091 32.9614591,5.1262 32.9614591,8.33374545 C32.9614591,10.4617455 31.8275045,12.4360182 30.0492773,13.4464727 L30.0890045,13.9966091 C30.1175045,14.4102909 30.3524136,14.7738818 30.7168682,14.9707909 L35.3330045,17.4451091 C36.23205,17.9287455 36.8452318,18.8200182 36.9721864,19.8278818 L37.33405,22.6891091 L33.3328227,22.6891091 L33.3120955,22.5276091 Z" id="Fill-9" fill="#00B642"></path>
        </g>
    </g>
</svg>