<?xml version="1.0" encoding="UTF-8" standalone="no"?>
<svg width="70px" height="70px" viewBox="0 0 70 70" version="1.1" xmlns="http://www.w3.org/2000/svg" xmlns:xlink="http://www.w3.org/1999/xlink">
    <!-- Generator: Sketch 40.1 (33804) - http://www.bohemiancoding.com/sketch -->
    <title>QQ</title>
    <desc>Created with Sketch.</desc>
    <defs>
        <path d="M6.13888889,15.5887654 C6.13888889,16.262037 5.54104938,15.7653086 5.04993827,17.0620988 C4.8308642,17.640679 5.15185185,18.0074074 5.04993827,20.2117901 C5.02265432,20.8056173 2.46598765,23.4890741 1.45166667,26.2768519 C0.444567901,29.0421605 0.305740741,31.9310494 1.86012346,33.0673457 C2.66419753,33.656358 3.44098765,32.6203704 4.02839506,31.5851852 C4.57487654,30.6222222 4.95845679,29.6584568 5.04993827,30.002716 C5.13259259,30.3148765 5.23611111,30.6390741 5.35888889,30.9729012 C5.85641975,32.3130247 6.69259259,33.7951852 7.90271605,35.1810494 C8.14907407,35.462716 6.40530864,35.9811111 5.35888889,37.7593827 C4.31407407,39.5376543 5.65901235,42.7708025 10.8582099,42.7708025 C17.5660494,42.7708025 19.0658642,40.4131481 19.202284,40.4235802 C19.7014198,40.4604938 19.7359259,40.4235802 20.2647531,40.4235802 C20.9131481,40.4235802 20.6451235,40.4749383 21.2469753,40.4235802 C21.397037,40.4099383 22.1794444,41.0174074 23.4264815,41.6240741 C24.8661111,42.3246296 26.9252469,43.0259877 29.3446914,42.7708025 C37.0347531,41.962716 35.8583333,39.3851852 35.2548765,37.7593827 C34.6249383,36.0621605 32.3980864,35.2669136 32.4959877,35.1577778 C34.3384568,33.1219136 34.6297531,31.8724691 35.2548765,30.002716 C35.3792593,29.6319753 35.8599383,30.6077778 36.478642,31.5835802 C37.1414815,32.6259877 37.96,33.6691975 38.6701852,33.0673457 C39.2431481,32.5818519 40.3882716,30.5612346 39.2431481,26.2768519 C38.0972222,21.9924691 35.8832099,21.0158642 35.931358,20.2117901 C36.0316667,18.5402469 35.9730864,17.3662346 35.8888272,17.0620988 C35.4803704,15.5887654 34.6249383,15.9145679 34.6249383,15.5887654 C34.6249383,7.1082716 28.247716,0.234320988 20.3819136,0.234320988 C12.5153086,0.234320988 6.13888889,7.1082716 6.13888889,15.5887654 L6.13888889,15.5887654 Z" id="path-1"></path>
    </defs>
    <g id="案例" stroke="none" stroke-width="1" fill="none" fill-rule="evenodd">
        <g id="设计师5-copy-4" transform="translate(-68.000000, -966.000000)">
            <g id="QQ" transform="translate(68.000000, 966.000000)">
                <rect id="Rectangle-740-Copy-3" fill="#4990E2" x="0" y="0" width="70" height="70" rx="35"></rect>
                <g id="Group-33" transform="translate(15.000000, 13.333333)">
                    <mask id="mask-2" fill="white">
                        <use xlink:href="#path-1"></use>
                    </mask>
                    <g id="Clip-32"></g>
                    <polygon id="Fill-31" fill="#FFFFFF" mask="url(#mask-2)" points="-3.74432099 47.2606173 44.1695062 47.2606173 44.1695062 -4.2017284 -3.74432099 -4.2017284"></polygon>
                </g>
            </g>
        </g>
    </g>
</svg>