<?xml version="1.0" encoding="UTF-8" standalone="no"?>
<svg width="36px" height="36px" viewBox="0 0 36 36" version="1.1" xmlns="http://www.w3.org/2000/svg" xmlns:xlink="http://www.w3.org/1999/xlink">
    <!-- Generator: Sketch 40.3 (33839) - http://www.bohemiancoding.com/sketch -->
    <title>wxc-icon-help</title>
    <desc>Created with Sketch.</desc>
    <defs></defs>
    <g id="案例" stroke="none" stroke-width="1" fill="none" fill-rule="evenodd">
        <g id="帮助反馈-copy" transform="translate(2.000000, 2.000000)">
            <path d="M15.7025455,0 C12.3781818,0 9.29963636,1.04 6.76145455,2.80290909 L0.816,1.08727273 L2.664,6.95272727 C0.982545455,9.45309091 0,12.4625455 0,15.7025455 C0,24.3745455 7.03054545,31.4050909 15.7025455,31.4050909 C24.3745455,31.4050909 31.4050909,24.3745455 31.4050909,15.7025455 C31.4050909,7.03054545 24.3745455,0 15.7025455,0 L15.7025455,0 Z" id="Stroke-1" stroke="#005825" stroke-width="2"></path>
            <path d="M13.7163636,19.5032542 C13.7163636,15.8668905 15.2545455,14.7257996 16.4901818,13.6516178 C16.7236364,13.4487087 16.9672727,13.2727087 17.2101818,13.0297996 C17.4836364,12.7563451 17.7243636,11.8668905 17.4654545,11.1243451 C17.3003636,10.649436 17.0094545,10.4370723 16.4632727,10.3752542 C14.9134545,10.201436 14.3221818,11.6647087 14.176,12.1177996 L10,10.8559814 C10.5549091,8.97889052 12.7141818,5.55852688 16.9636364,6.04725415 C19.1810909,6.30252688 20.8654545,7.63634506 21.5861818,9.7047087 C22.3701818,11.9541632 21.8392727,14.6036178 20.2952727,16.1476178 C19.976,16.4668905 19.6589091,16.6792542 19.3527273,16.9447087 C18.3752727,17.7948905 18.08,18.0487087 18.08,19.5032542 L13.7163636,19.5032542 Z" id="Fill-3" stroke="#005825" stroke-width="2" fill="#00B642"></path>
            <path d="M18.3018182,23.6509091 C18.3018182,25.1149091 17.1149091,26.3018182 15.6509091,26.3018182 C14.1869091,26.3018182 13,25.1149091 13,23.6509091 C13,22.1869091 14.1869091,21 15.6509091,21 C17.1149091,21 18.3018182,22.1869091 18.3018182,23.6509091" id="Fill-5" fill="#00B642"></path>
            <path d="M18.3018182,23.6509091 C18.3018182,25.1149091 17.1149091,26.3018182 15.6509091,26.3018182 C14.1869091,26.3018182 13,25.1149091 13,23.6509091 C13,22.1869091 14.1869091,21 15.6509091,21 C17.1149091,21 18.3018182,22.1869091 18.3018182,23.6509091 L18.3018182,23.6509091 Z" id="Stroke-7" stroke="#005825" stroke-width="2"></path>
        </g>
    </g>
</svg>