<?xml version="1.0" encoding="UTF-8" standalone="no"?>
<svg width="32px" height="29px" viewBox="0 0 32 29" version="1.1" xmlns="http://www.w3.org/2000/svg" xmlns:xlink="http://www.w3.org/1999/xlink">
    <!-- Generator: Sketch 40.1 (33804) - http://www.bohemiancoding.com/sketch -->
    <title>Page 1</title>
    <desc>Created with Sketch.</desc>
    <defs></defs>
    <g id="案例" stroke="none" stroke-width="1" fill="none" fill-rule="evenodd">
        <g id="案例详情2" transform="translate(-304.000000, -1058.000000)">
            <g id="Group-3" transform="translate(0.000000, 1038.000000)">
                <g id="Page-1" transform="translate(305.000000, 21.000000)">
                    <path d="M24.9243265,0.718726138 C22.0317685,-0.61419708 18.4773208,-0.0931272977 16.1022581,2.28193548 L14.7232258,3.66096774 L13.3441935,2.28193548 C10.3025806,-0.760645161 5.32451613,-0.760645161 2.28193548,2.28193548 C-0.760645161,5.32451613 -0.760645161,10.3025806 2.28193548,13.3451613 L14.7232258,25.7864516 L27.1654839,13.3451613 C30.2080645,10.3025806 30.2080645,5.32451613 27.1654839,2.28193548 C27.1654839,2.28193548 25.7372878,1.09334784 24.9243265,0.718726138 Z" id="Stroke-1" fill="#FE7A5C"></path>
                    <path d="M24.9243265,0.718726138 C22.0317685,-0.61419708 18.4773208,-0.0931272977 16.1022581,2.28193548 L14.7232258,3.66096774 L13.3441935,2.28193548 C10.3025806,-0.760645161 5.32451613,-0.760645161 2.28193548,2.28193548 C-0.760645161,5.32451613 -0.760645161,10.3025806 2.28193548,13.3451613 L14.7232258,25.7864516 L27.1654839,13.3451613 C30.2080645,10.3025806 30.2080645,5.32451613 27.1654839,2.28193548" id="Stroke-1" stroke="#24262C" stroke-width="2"></path>
                    <path d="M4.5,8.37096774 C4.5,6.23322581 6.23322581,4.5 8.37096774,4.5" id="Stroke-3" stroke="#24262C" stroke-width="2"></path>
                </g>
            </g>
        </g>
    </g>
</svg>