<?xml version="1.0" encoding="UTF-8" standalone="no"?>
<svg width="70px" height="70px" viewBox="0 0 70 70" version="1.1" xmlns="http://www.w3.org/2000/svg" xmlns:xlink="http://www.w3.org/1999/xlink">
    <!-- Generator: Sketch 40.1 (33804) - http://www.bohemiancoding.com/sketch -->
    <title>微博</title>
    <desc>Created with Sketch.</desc>
    <defs>
        <path d="M30.9225,0.656666667 C30.1666667,0.671666667 29.5541667,1.2975 29.5541667,2.05916667 L29.5541667,2.73833333 C29.5541667,3.49833333 30.1641667,4.07833333 30.9416667,4.065 C30.9416667,4.065 36.8383333,3.44 39.3508333,7.10083333 C41.8616667,10.7625 40.7766667,15.3566667 40.7766667,15.3566667 C40.6616667,16.1075 41.1825,16.7141667 41.9491667,16.7141667 L42.535,16.7141667 C43.2991667,16.7141667 44.0041667,16.1083333 44.0866667,15.3516667 C44.0866667,15.3516667 45.4391667,8.13416667 41.2525,4.11416667 C37.9816667,0.9725 33.5133333,0.629166667 31.7175,0.629166667 C31.2158333,0.629166667 30.9225,0.656666667 30.9225,0.656666667 L30.9225,0.656666667 Z M0.489166667,23.785 C0.489166667,30.8733333 9.25916667,36.6191667 20.0758333,36.6191667 C30.8941667,36.6191667 39.5791667,30.8733333 39.5791667,23.785 C39.5791667,17.7975 32.1958333,17.7975 32.1958333,17.4108333 C32.1958333,17.0241667 35.8725,13.5458333 32.1958333,11.3808333 C29.9916667,10.0833333 26.6916667,10.7466667 24.445,11.41 C22.945,11.8525 21.915,12.2958333 21.9958333,12.1541667 C24.8875,7.10083333 20.7541667,5.50583333 18.6466667,5.50583333 C13.6225,5.50583333 0.489166667,16.6975 0.489166667,23.785 L0.489166667,23.785 Z M6.93166667,26.1858333 C6.29,21.6233333 11.3725,17.1375 18.2833333,16.1658333 C25.1941667,15.1941667 31.3166667,18.1058333 31.9583333,22.6683333 C32.5991667,27.23 27.5166667,31.7158333 20.605,32.6875 C19.7066667,32.8133333 18.8233333,32.8741667 17.9616667,32.8741667 C12.1966667,32.8741667 7.48916667,30.155 6.93166667,26.1858333 L6.93166667,26.1858333 Z M31.7241667,6.9625 C31.2233333,7.03916667 30.8175,7.51333333 30.8175,8.01833333 L30.8175,8.37583333 C30.8175,8.88333333 31.2225,9.26333333 31.7458333,9.2475 C31.7458333,9.2475 34.25,8.90666667 35.4691667,10.3758333 C36.6866667,11.845 35.7325,14.22 35.7325,14.22 C35.5866667,14.7016667 35.885,15.0916667 36.385,15.0916667 L37.2158333,15.0916667 C37.7216667,15.0916667 38.2133333,14.6941667 38.2958333,14.1841667 C38.2958333,14.1841667 39.2733333,10.3758333 36.9908333,8.28833333 C35.6708333,7.08166667 34.1158333,6.82666667 33.04,6.82666667 C32.255,6.82666667 31.7241667,6.9625 31.7241667,6.9625 L31.7241667,6.9625 Z M16.88,18.8466667 C12.77,19.6458333 9.98583333,23.1133333 10.6616667,26.5925 C11.3383333,30.0716667 15.2191667,32.2441667 19.3291667,31.445 C23.44,30.6458333 26.2233333,27.1775 25.5475,23.6991667 C24.9658333,20.7066667 22.0141667,18.6816667 18.5841667,18.6816667 C18.0258333,18.6816667 17.455,18.735 16.88,18.8466667 L16.88,18.8466667 Z M18.1816667,23.785 C18.1816667,23.0758333 18.7466667,22.5016667 19.4441667,22.5016667 C20.1425,22.5016667 20.7083333,23.0758333 20.7083333,23.785 C20.7083333,24.4941667 20.1425,25.0691667 19.4441667,25.0691667 C18.7466667,25.0691667 18.1816667,24.4941667 18.1816667,23.785 L18.1816667,23.785 Z M13.4391667,27.3191667 C12.99,26.3558333 13.6516667,25.0966667 14.9158333,24.5066667 C16.1808333,23.9166667 17.5708333,24.22 18.0208333,25.1825 C18.4691667,26.1475 17.8083333,27.4066667 16.5433333,27.9958333 C16.1058333,28.2 15.6533333,28.2975 15.2291667,28.2975 C14.4291667,28.2975 13.7325,27.95 13.4391667,27.3191667 L13.4391667,27.3191667 Z" id="path-1"></path>
    </defs>
    <g id="案例" stroke="none" stroke-width="1" fill="none" fill-rule="evenodd">
        <g id="设计师5-copy-4" transform="translate(-506.000000, -815.000000)">
            <g id="微博" transform="translate(506.000000, 815.000000)">
                <rect id="Rectangle-740-Copy-2" fill="#FF6E80" x="0" y="0" width="70" height="70" rx="35"></rect>
                <g id="Group-39" transform="translate(12.500000, 16.666667)">
                    <mask id="mask-2" fill="white">
                        <use xlink:href="#path-1"></use>
                    </mask>
                    <g id="Clip-38"></g>
                    <polygon id="Fill-37" fill="#FFFFFF" mask="url(#mask-2)" points="-4.1175 41.2266667 48.9016667 41.2266667 48.9016667 -3.9775 -4.1175 -3.9775"></polygon>
                </g>
            </g>
        </g>
    </g>
</svg>