<?xml version="1.0" encoding="UTF-8" standalone="no"?>
<svg width="30px" height="32px" viewBox="0 0 30 32" version="1.1" xmlns="http://www.w3.org/2000/svg" xmlns:xlink="http://www.w3.org/1999/xlink">
    <!-- Generator: Sketch 40.1 (33804) - http://www.bohemiancoding.com/sketch -->
    <title>Group 40</title>
    <desc>Created with Sketch.</desc>
    <defs></defs>
    <g id="案例" stroke="none" stroke-width="1" fill="none" fill-rule="evenodd">
        <g id="部落2" transform="translate(-580.000000, -156.000000)" stroke-width="2" stroke="#61676F">
            <g id="Group-40" transform="translate(580.000000, 157.000000)">
                <g id="周边1" transform="translate(0.409302, 0.598211)">
                    <g id="Group-5">
                        <polyline id="Stroke-1" points="16.2812285 27.4109904 9.94857953 24.3513365 0.662284564 27.0545388 0.662284564 3.16035056 10.2560025 0.426670981 19.3726848 5.20232838 28.4893671 2.791973 28.4893671 26.562927 23.2194477 27.8164708"></polyline>
                        <path d="M9.44543828,0.426670981 L9.44543828,14.6410098" id="Stroke-3"></path>
                    </g>
                    <path d="M18.8908766,5.36518307 L18.8908766,9.34048057" id="Stroke-6"></path>
                    <g id="Group-21" transform="translate(0.000000, 4.513277)">
                        <path d="M29.1521817,9.44543828 L27.8270825,9.44543828" id="Stroke-7"></path>
                        <path d="M0,17.3166369 L1.32509917,17.3166369" id="Stroke-9"></path>
                        <path id="Stroke-11"></path>
                        <path d="M19.275025,6.10181665 C15.3116534,6.23697676 12.5342455,9.28337975 12.5342455,13.0320853 C12.5342455,14.2047981 12.7992654,15.2807786 13.3120787,16.2494261 C13.435313,16.4813184 19.4048847,24.0913629 19.4048847,24.0913629 C19.4048847,24.0913629 25.15449,16.4813184 25.2777242,16.2494261 C25.7905376,15.2807786 26.0423065,14.190222 26.0423065,13.0175092 C26.0423065,9.26880366 23.2383966,6.23697676 19.275025,6.10181665 L19.275025,6.10181665 Z" id="Stroke-13"></path>
                        <path d="M9.44543828,8.80250126 L9.44543828,19.4032946" id="Stroke-19"></path>
                    </g>
                </g>
            </g>
        </g>
    </g>
</svg>