<?xml version="1.0" encoding="UTF-8" standalone="no"?>
<svg width="80px" height="80px" viewBox="0 0 80 80" version="1.1" xmlns="http://www.w3.org/2000/svg" xmlns:xlink="http://www.w3.org/1999/xlink">
    <!-- Generator: Sketch 40.1 (33804) - http://www.bohemiancoding.com/sketch -->
    <title>Group 2</title>
    <desc>Created with Sketch.</desc>
    <defs>
        <rect id="path-1" x="0" y="0" width="80" height="80" rx="40"></rect>
    </defs>
    <g id="案例" stroke="none" stroke-width="1" fill="none" fill-rule="evenodd">
        <g id="我的资料1" transform="translate(-489.000000, -187.000000)">
            <g id="Group-2" transform="translate(489.000000, 187.000000)">
                <g id="Group-3">
                    <g id="Bitmap-Copy-2">
                        <mask id="mask-2" fill="white">
                            <use xlink:href="#path-1"></use>
                        </mask>
                        <use id="Mask" fill="#F9FAFD" xlink:href="#path-1"></use>
                    </g>
                </g>
                <g id="Group-28" transform="translate(24.000000, 24.000000)" fill="#C8C8D9">
                    <path d="M20.6500504,17.9319597 C23.4063312,16.2309726 25.1540119,13.1191219 25.1540119,9.6839914 C25.1540119,4.40782808 21.065657,0.109453763 15.9954743,0.109453763 C10.9252915,0.109453763 6.83693662,4.40782808 6.83693662,9.6839914 C6.83693662,13.1477899 8.61395284,16.2824689 11.4084233,17.973455 L11.3796582,18.6397938 C11.3465718,19.1335028 11.0465709,19.5986951 10.588408,19.8440963 L3.28590222,23.7585862 C1.75677776,24.5791861 0.719349512,26.0874418 0.499038997,27.8086983 L0.0199787146,31.5720039 L2.13623432,31.8413983 L2.61520206,28.0788176 C2.74793808,27.0417709 3.37307907,26.1329154 4.29423232,25.6385812 L11.5959882,21.7244934 C12.7025339,21.1318054 13.4264243,20.0093146 13.5096529,18.7565045 L13.6087933,16.4665931 L13.0509395,16.4425111 L13.0510772,16.4422302 C10.5884401,15.2357589 8.97026996,12.619278 8.97026996,9.6839914 C8.97026996,5.56279655 12.1280631,2.2427871 15.9954743,2.2427871 C19.8628855,2.2427871 23.0206786,5.56279655 23.0206786,9.6839914 C23.0206786,12.6114795 21.4111541,15.2222102 18.9576545,16.433315 L18.9606548,16.4393931 L18.428456,16.4702346 L18.5604265,18.7475088 C18.6442146,20.0093146 19.3681049,21.1318054 20.4749628,21.7246607 L27.7768442,25.638816 C28.6975598,26.1329154 29.3227008,27.0417709 29.4555293,28.0795426 L29.9344045,31.8413983 L32.0506601,31.5720039 L31.5716924,27.8094232 C31.3512893,26.0874418 30.3138611,24.5791861 28.7851743,23.7588209 L21.4825431,19.8442636 C21.0240679,19.5986951 20.7240671,19.1335028 20.6896271,18.6150912 L20.6500504,17.9319597 Z" id="Combined-Shape"></path>
                </g>
            </g>
        </g>
    </g>
</svg>