<?xml version="1.0" encoding="UTF-8" standalone="no"?>
<svg width="21px" height="26px" viewBox="0 0 21 26" version="1.1" xmlns="http://www.w3.org/2000/svg" xmlns:xlink="http://www.w3.org/1999/xlink">
    <!-- Generator: Sketch 40.1 (33804) - http://www.bohemiancoding.com/sketch -->
    <title>Page 1</title>
    <desc>Created with Sketch.</desc>
    <defs></defs>
    <g id="案例" stroke="none" stroke-width="1" fill="none" fill-rule="evenodd">
        <g id="选择地区" transform="translate(-44.000000, -314.000000)" stroke="#FFFFFF" stroke-width="2">
            <g id="Page-1" transform="translate(45.000000, 315.000000)">
                <path d="M9.69268515,13.1839365 C7.75378572,13.1839365 6.1819392,11.61209 6.1819392,9.67319058 C6.1819392,7.73413646 7.75378572,6.16228994 9.69268515,6.16228994 C11.6315846,6.16228994 13.2034311,7.73413646 13.2034311,9.67319058 C13.2034311,11.61209 11.6315846,13.1839365 9.69268515,13.1839365 L9.69268515,13.1839365 Z M17.9584138,13.8023426 C18.5754277,12.5646024 18.9234551,11.1692445 18.9234551,9.69221608 C18.9234551,4.45479007 14.5616661,0.236079001 9.27257739,0.470726823 C4.55270683,0.680007313 0.712185557,4.49717208 0.473980121,9.21565053 C0.391072256,10.8563291 0.738944999,12.407758 1.41164334,13.7703241 C1.5457499,14.0417855 1.71512325,14.2945307 1.90986393,14.5262396 L9.20034236,23.2020219 C9.56863271,23.6403818 10.2461261,23.631101 10.6023515,23.1828417 L16.9982765,15.4806479" id="Stroke-3"></path>
            </g>
        </g>
    </g>
</svg>