<?xml version="1.0" encoding="UTF-8" standalone="no"?>
<svg width="28px" height="28px" viewBox="0 0 28 28" version="1.1" xmlns="http://www.w3.org/2000/svg" xmlns:xlink="http://www.w3.org/1999/xlink">
    <!-- Generator: Sketch 40.1 (33804) - http://www.bohemiancoding.com/sketch -->
    <title>Slice 3</title>
    <desc>Created with Sketch.</desc>
    <defs></defs>
    <g id="案例" stroke="none" stroke-width="1" fill="none" fill-rule="evenodd">
        <g id="Group-Copy-12" transform="translate(1.000000, 5.000000)">
            <g id="Page-1">
                <path d="M18.8976089,10.9432844 C18.8976089,14.2291067 16.2340533,16.8926622 12.9482311,16.8926622 C9.66240889,16.8926622 6.99885333,14.2291067 6.99885333,10.9432844 C6.99885333,7.65746222 9.66240889,4.99390667 12.9482311,4.99390667 C16.2340533,4.99390667 18.8976089,7.65746222 18.8976089,10.9432844 L18.8976089,10.9432844 Z" id="Stroke-1" stroke="#61676F" stroke-width="2" stroke-linejoin="bevel"></path>
                <path d="M14.1244711,10.9925689 C14.1244711,11.4796356 13.7298489,11.8742578 13.2427822,11.8742578 C12.7562933,11.8742578 12.3616711,11.4796356 12.3616711,10.9925689 C12.3616711,10.5055022 12.7562933,10.11088 13.2427822,10.11088 C13.7298489,10.11088 14.1244711,10.5055022 14.1244711,10.9925689" id="Fill-3" fill="#61676F"></path>
                <path d="M13.2356178,17.0444444 C18.5118844,17.0444444 23.07864,14.5455556 25.3013511,10.9055556 C23.07864,7.26555556 18.5118844,4.76666667 13.2356178,4.76666667 C7.95935111,4.76666667 3.39259556,7.26555556 1.16988444,10.9055556 C3.39259556,14.5455556 7.95935111,17.0444444 13.2356178,17.0444444 L13.2356178,17.0444444 Z" id="Stroke-5" stroke="#61676F" stroke-width="2" stroke-linejoin="bevel"></path>
                <path d="M11.9166667,2.6 L11.9166667,0" id="Stroke-7" stroke="#61676F" stroke-width="2" stroke-linejoin="bevel"></path>
                <path d="M7.26376444,3.50884444 L5.81932,1.00706667" id="Stroke-9" stroke="#61676F" stroke-width="2" stroke-linejoin="bevel"></path>
                <path d="M2.64628,6.55696889 L0.144502222,5.11252444" id="Stroke-11" stroke="#61676F" stroke-width="2" stroke-linejoin="bevel"></path>
                <path d="M18.6333333,3.50884444 L20.0777778,1.00706667" id="Stroke-13" stroke="#61676F" stroke-width="2" stroke-linejoin="bevel"></path>
                <path d="M23.2508178,6.55696889 L25.7525956,5.11252444" id="Stroke-15" stroke="#61676F" stroke-width="2" stroke-linejoin="bevel"></path>
            </g>
        </g>
    </g>
</svg>