<?xml version="1.0" encoding="UTF-8" standalone="no"?>
<svg width="34px" height="33px" viewBox="0 0 34 33" version="1.1" xmlns="http://www.w3.org/2000/svg" xmlns:xlink="http://www.w3.org/1999/xlink">
    <!-- Generator: Sketch 40.1 (33804) - http://www.bohemiancoding.com/sketch -->
    <title>Page 1</title>
    <desc>Created with Sketch.</desc>
    <defs></defs>
    <g id="案例" stroke="none" stroke-width="1" fill="none" fill-rule="evenodd" stroke-linejoin="bevel">
        <g id="部落－帖子详情" transform="translate(-163.000000, -1454.000000)" stroke="#61676F" stroke-width="2">
            <g id="Page-1" transform="translate(164.000000, 1455.000000)">
                <path d="M8.04499521,28.6444836 C11.8144294,27.4928848 12.2175817,24.9057736 12.6631713,23.4629119 C18.6552912,23.0385408 23.3884434,18.0352056 23.3884434,11.927091 C23.3884434,5.53606235 18.2054578,0.353076749 11.8144292,0.353076749 C5.42340051,0.353076749 0.24041491,5.53606235 0.24041491,11.927091 C0.24041491,16.5569796 2.95356076,20.5432387 6.87616422,22.3949113 C9.30639601,25.7134932 5.38379255,28.6444829 5.38379255,28.6444829" id="Stroke-1"></path>
                <path d="M25.2385447,12.5008264 C29.4539957,13.3665859 31.3603958,16.6080456 31.3603958,19.8488262 C31.3603958,22.6779668 29.7025194,25.1081986 27.310481,26.2398548 C25.8209385,28.2683486 28.2172206,30.0591946 28.2172206,30.0591946 C25.3102786,30.0591946 24.1941827,28.2683486 23.7698116,26.8919717 L23.5802591,26.6260325 C21.5362051,26.4845755 19.476798,26.6260322 17.6987428,23.3792616" id="Stroke-3"></path>
                <path d="M7.07759903,9.02564103 L16.9795912,9.02564103" id="Stroke-5"></path>
                <path d="M7.07759903,14.7692308 L14.1504506,14.7692308" id="Stroke-7"></path>
            </g>
        </g>
    </g>
</svg>