<?xml version="1.0" encoding="UTF-8" standalone="no"?>
<svg width="40px" height="40px" viewBox="0 0 40 40" version="1.1" xmlns="http://www.w3.org/2000/svg" xmlns:xlink="http://www.w3.org/1999/xlink">
    <!-- Generator: Sketch 40.1 (33804) - http://www.bohemiancoding.com/sketch -->
    <title>Slice Copy 3</title>
    <desc>Created with Sketch.</desc>
    <defs></defs>
    <g id="案例" stroke="none" stroke-width="1" fill="none" fill-rule="evenodd">
        <g id="部落" transform="translate(1.000000, 7.000000)" stroke="#61676F" stroke-width="2">
            <path d="M16.0192371,14.1874277 C13.695721,13.0491132 12.0841941,10.5710433 12.0841941,7.6970379 C12.0841941,3.7446293 15.1318554,0.540677688 18.8906376,0.540677688 C22.6494199,0.540677688 25.6970812,3.7446293 25.6970812,7.6970379 C25.6970812,10.5632288 24.0942371,13.036089 21.7794038,14.1787449" id="Stroke-2"></path>
            <path d="M16.0069075,13.7320151 L15.9044505,15.2688699 C15.8549586,16.0138538 15.4242919,16.6815608 14.766136,17.0340823 L8.62392634,20.3265984 C7.59327849,20.8796925 6.89431344,21.8964478 6.74583763,23.0564694 L6.34295591,26.2213484" id="Stroke-4"></path>
            <path d="M8.03141237,13.4607645 C6.2618586,12.5942215 5.03584785,10.70745 5.03584785,8.51938548 C5.03584785,5.51079677 7.35589086,3.07093118 10.2177403,3.07093118" id="Stroke-6"></path>
            <path d="M8.02203495,13.1140605 L7.94388978,14.2836331 C7.90655376,14.8514879 7.57834409,15.3594315 7.07734677,15.6285981 L2.40166129,18.1353212 C1.61673656,18.5555685 1.0836129,19.3300739 0.971604839,20.2131142 L0.665102151,22.6225901" id="Stroke-8"></path>
            <path d="M29.8832306,13.4607645 C31.6527844,12.5942215 32.8787952,10.70745 32.8787952,8.51938548 C32.8787952,5.51079677 30.5587522,3.07093118 27.6969027,3.07093118" id="Stroke-10"></path>
            <path d="M29.8926081,13.1140605 L29.9707532,14.2836331 C30.0080892,14.8514879 30.3362989,15.3594315 30.8372962,15.6285981 L35.5129817,18.1353212 C36.2979065,18.5555685 36.8310301,19.3300739 36.9430382,20.2131142 L37.2495409,22.6225901" id="Stroke-12"></path>
            <path d="M21.8413989,13.7320151 L21.9438559,15.2688699 C21.9933478,16.0138538 22.4240145,16.6815608 23.0821704,17.0340823 L29.2243801,20.3265984 C30.255028,20.8796925 30.953993,21.8964478 31.1024688,23.0564694 L31.5053505,26.2213484" id="Stroke-14"></path>
        </g>
    </g>
</svg>