<?xml version="1.0" encoding="UTF-8" standalone="no"?>
<svg width="28px" height="28px" viewBox="0 0 28 28" version="1.1" xmlns="http://www.w3.org/2000/svg" xmlns:xlink="http://www.w3.org/1999/xlink">
    <!-- Generator: Sketch 40.1 (33804) - http://www.bohemiancoding.com/sketch -->
    <title>Page 1 Copy</title>
    <desc>Created with Sketch.</desc>
    <defs></defs>
    <g id="案例" stroke="none" stroke-width="1" fill="none" fill-rule="evenodd" stroke-linejoin="bevel">
        <g id="部落－帖子列表" transform="translate(-533.000000, -751.000000)" stroke="#61676F" stroke-width="2">
            <g id="Page-1-Copy" transform="translate(534.000000, 752.500000)">
                <path d="M6.62489048,23.5881516 C9.72894315,22.6398334 10.0609309,20.5093997 10.4278649,19.3212323 C15.3622541,18.9717713 19.2599091,14.8516262 19.2599091,9.82171767 C19.2599091,4.55883513 14.9918255,0.290751545 9.72894293,0.290751545 C4.46606039,0.290751545 0.197976805,4.55883513 0.197976805,9.82171767 C0.197976805,13.6343371 2.43219741,16.9169407 5.66238185,18.4417555 C7.66362847,21.1745404 4.43344403,23.588151 4.43344403,23.588151" id="Stroke-1"></path>
                <path d="M20.78343,10.2941772 C24.2547684,11.0071125 25.8246503,13.6763889 25.8246503,16.345106 C25.8246503,18.674846 24.4594227,20.6760926 22.4896275,21.6079886 C21.2630195,23.2784121 23.2363092,24.7531375 23.2363092,24.7531375 C20.8425014,24.7531375 19.923419,23.2784121 19.573958,22.1449936 L19.4178654,21.9259981 C17.7346283,21.8095111 16.0387483,21.9259978 14.5745559,19.252348" id="Stroke-3"></path>
                <path d="M5.82825934,7.43243243 L13.9823492,7.43243243" id="Stroke-5"></path>
                <path d="M5.82825934,12.1621622 L11.6526092,12.1621622" id="Stroke-7"></path>
            </g>
        </g>
    </g>
</svg>