<?xml version="1.0" encoding="UTF-8" standalone="no"?>
<svg width="36px" height="36px" viewBox="0 0 36 36" version="1.1" xmlns="http://www.w3.org/2000/svg" xmlns:xlink="http://www.w3.org/1999/xlink">
    <!-- Generator: Sketch 40.3 (33839) - http://www.bohemiancoding.com/sketch -->
    <title>wxc-icon-myOerder</title>
    <desc>Created with Sketch.</desc>
    <defs></defs>
    <g id="案例" stroke="none" stroke-width="1" fill="none" fill-rule="evenodd">
        <g id="我的订单-copy" transform="translate(5.000000, 1.000000)">
            <polygon id="Stroke-1" stroke="#005825" stroke-width="2" stroke-linejoin="bevel" points="0.435897436 33.2874821 0.435897436 6.06394359 25.0126667 6.06394359 25.0126667 20.3605077 25.0126667 33.3162513"></polygon>
            <g id="Group-16" transform="translate(5.230769, 0.623595)">
                <path d="M13.5619026,5.23861538 L13.5619026,4.14102564 C13.5619026,3.55517949 13.0876462,3.08092308 12.5026718,3.08092308 L11.6840564,3.08092308 L11.6840564,2.66071795 C11.6840564,1.56923077 10.7991846,0.684358974 9.70769744,0.684358974 L5.59021026,0.684358974 C4.49872308,0.684358974 3.61385128,1.56923077 3.61385128,2.66071795 L3.61385128,3.08092308 L2.7952359,3.08092308 C2.21026154,3.08092308 1.73600513,3.55517949 1.73600513,4.14102564 L1.73600513,5.23861538 L0.777030769,5.23861538 L0.777030769,6.97435897 C0.777030769,7.38410256 1.10918462,7.71538462 1.51805641,7.71538462 L13.7798513,7.71538462 C14.1887231,7.71538462 14.5208769,7.38410256 14.5208769,6.97435897 L14.5208769,5.23861538 L13.5619026,5.23861538 Z" id="Fill-6" fill="#5DAE35"></path>
                <path d="M13.5619026,5.23861538 L13.5619026,4.14102564 C13.5619026,3.55517949 13.0876462,3.08092308 12.5026718,3.08092308 L11.6840564,3.08092308 L11.6840564,2.66071795 C11.6840564,1.56923077 10.7991846,0.684358974 9.70769744,0.684358974 L5.59021026,0.684358974 C4.49872308,0.684358974 3.61385128,1.56923077 3.61385128,2.66071795 L3.61385128,3.08092308 L2.7952359,3.08092308 C2.21026154,3.08092308 1.73600513,3.55517949 1.73600513,4.14102564 L1.73600513,5.23861538 L0.777030769,5.23861538 L0.777030769,6.97435897 C0.777030769,7.38410256 1.10918462,7.71538462 1.51805641,7.71538462 L13.7798513,7.71538462 C14.1887231,7.71538462 14.5208769,7.38410256 14.5208769,6.97435897 L14.5208769,5.23861538 L13.5619026,5.23861538 L13.5619026,5.23861538 Z" id="Stroke-8" stroke="#005825" stroke-width="2"></path>
            </g>
            <rect id="Rectangle-1252" fill="#00B642" x="4.25" y="12.0961538" width="3.59615385" height="3.59615385"></rect>
            <rect id="Rectangle-1252-Copy" fill="#00B642" x="4.25" y="18.7" width="3.59615385" height="3.59615385"></rect>
            <rect id="Rectangle-1252-Copy-2" fill="#00B642" x="4.25" y="25.4019231" width="3.59615385" height="3.59615385"></rect>
            <path d="M10.4615385,13.6 L20.1758242,13.6" id="Line" stroke="#005825" stroke-width="2" stroke-linecap="square"></path>
            <path d="M10.4615385,20.4 L20.1758242,20.4" id="Line-Copy-4" stroke="#005825" stroke-width="2" stroke-linecap="square"></path>
            <path d="M10.4615385,27.2 L20.1758242,27.2" id="Line-Copy-5" stroke="#005825" stroke-width="2" stroke-linecap="square"></path>
        </g>
    </g>
</svg>