<?xml version="1.0" encoding="UTF-8" standalone="no"?>
<svg width="41px" height="51px" viewBox="0 0 41 51" version="1.1" xmlns="http://www.w3.org/2000/svg" xmlns:xlink="http://www.w3.org/1999/xlink">
    <!-- Generator: Sketch 40.1 (33804) - http://www.bohemiancoding.com/sketch -->
    <title>Page 2</title>
    <desc>Created with Sketch.</desc>
    <defs>
        <rect id="path-1" x="0.852307692" y="3.84615385" width="8.84" height="45.1923077"></rect>
        <mask id="mask-2" maskContentUnits="userSpaceOnUse" maskUnits="objectBoundingBox" x="0" y="0" width="8.84" height="45.1923077" fill="white">
            <use xlink:href="#path-1"></use>
        </mask>
    </defs>
    <g id="Page-1" stroke="none" stroke-width="1" fill="none" fill-rule="evenodd">
        <g id="Page-2" transform="translate(0.000000, 1.000000)">
            <g id="Group-7" transform="translate(14.500000, 0.471230)">
                <path d="M8.2184,2.9265873 C8.1034,2.74305556 8.0384,2.54464286 8.0384,2.34126984 C8.0384,1.20039683 10.0184,0.27281746 12.4584,0.27281746 C14.8984,0.27281746 16.8784,1.20039683 16.8784,2.34126984 C16.8784,2.51984127 16.8284,2.69345238 16.7384,2.85714286 C16.2484,3.75 14.5184,4.40972222 12.4584,4.40972222 C10.4534,4.40972222 8.7584,3.78472222 8.2184,2.9265873" id="Fill-1" fill="#B8E986"></path>
                <path d="M24.1534,40.3224206 C24.2834,42.4404762 23.8834,44.5684524 22.9284,46.5128968 C22.4134,47.5644841 21.8434,48.3134921 21.3234,48.3630952 L3.7184,48.3630952 C3.1984,48.3134921 2.6284,47.5644841 2.1134,46.5128968 C0.5034,43.2390873 0.4684,39.4246032 1.8784,36.0615079 L4.3934,30.0644841 C4.5784,29.1765873 4.6384,28.2738095 4.5734,27.3809524 L20.4184,27.3809524 C20.4034,28.2787698 20.4634,29.1765873 20.6484,30.0644841 L21.3684,31.780754 L23.1634,36.0615079 C23.7434,37.4553571 24.0734,38.8839286 24.1534,40.3224206 Z" id="Fill-3" fill="#B8E986"></path>
                <path d="M24.5034,15.7986111 L21.6134,23.2390873 L21.1134,24.5188492 C20.7534,25.4414683 20.5384,26.4087302 20.4684,27.3859127 L20.4184,27.3809524 L4.5734,27.3809524 C4.5034,26.4037698 4.2884,25.4414683 3.9284,24.5188492 L0.5384,15.7986111 C-0.2916,13.6656746 0.7284,11.264881 2.8484,10.3670635 L4.6984,9.57837302 C8.8734,8.06547619 8.3984,6.33928571 8.2684,3.88392857 L8.2184,2.9265873 C8.7584,3.78472222 10.4534,4.40972222 12.4584,4.40972222 C14.5184,4.40972222 16.2484,3.75 16.7384,2.85714286 L16.8234,2.88690476 L16.7734,3.88392857 C16.6434,6.33928571 16.1684,8.06547619 20.3434,9.57837302 L21.6234,10.1240079 L22.1934,10.3670635 C23.8434,11.0664683 24.8234,12.6736111 24.7884,14.3551587 C24.7834,14.8363095 24.6884,15.327381 24.5034,15.7986111" id="Fill-5" fill="#00B642"></path>
            </g>
            <path d="M31.3234,3.35813492 L31.2734,4.35515873 C31.1434,6.81051587 30.6684,8.53670635 34.8434,10.0496032 L36.1234,10.5952381 L36.6934,10.8382937 C38.3434,11.5376984 39.3234,13.1448413 39.2884,14.8263889 C39.2834,15.3075397 39.1884,15.7986111 39.0034,16.2698413 L36.1134,23.7103175 L35.6134,24.9900794 C35.2534,25.9126984 35.0384,26.8799603 34.9684,27.8571429 C34.9034,28.75 34.9634,29.6478175 35.1484,30.5357143 L35.8684,32.2519841 L37.6634,36.5327381 C37.6684,36.5426587 37.6734,36.5575397 37.6784,36.5674603 C38.2434,37.9265873 38.5734,39.3551587 38.6534,40.7936508 C38.7834,42.9117063 38.3834,45.0396825 37.4284,46.984127 C36.9134,48.0357143 36.3434,48.7847222 35.8234,48.8343254 L18.2184,48.8343254 C17.6984,48.7847222 17.1284,48.0357143 16.6134,46.984127 C15.0034,43.7103175 14.9684,39.8958333 16.3784,36.5327381 L18.8934,30.5357143 C19.0784,29.6478175 19.1384,28.7450397 19.0734,27.8521825 C19.0034,26.875 18.7884,25.9126984 18.4284,24.9900794 L15.0384,16.2698413 C14.2084,14.1369048 15.2284,11.7361111 17.3484,10.8382937 L19.1984,10.0496032 C23.3734,8.53670635 22.8984,6.81051587 22.7684,4.35515873 L22.7184,3.39781746 L22.7184,3.35813492" id="Stroke-8" stroke="#005825" stroke-width="2"></path>
            <path d="M22.7184,3.39781746 C22.6034,3.21428571 22.5384,3.01587302 22.5384,2.8125 C22.5384,1.67162698 24.5184,0.744047619 26.9584,0.744047619 C29.3984,0.744047619 31.3784,1.67162698 31.3784,2.8125 C31.3784,2.99107143 31.3284,3.16468254 31.2384,3.32837302 C30.7484,4.22123016 29.0184,4.88095238 26.9584,4.88095238 C24.9534,4.88095238 23.2584,4.25595238 22.7184,3.39781746 L22.7184,3.39781746 Z" id="Stroke-10" stroke="#005825" stroke-width="2"></path>
            <use id="Rectangle-2040" stroke="#005825" mask="url(#mask-2)" stroke-width="4" fill="#DBEFF9" xlink:href="#path-1"></use>
            <path d="M2.48076923,11 L6.32692308,11" id="Line" stroke="#005825" stroke-width="2" stroke-linecap="square"></path>
            <path d="M2.48076923,17 L6.32692308,17" id="Line-Copy-14" stroke="#005825" stroke-width="2" stroke-linecap="square"></path>
            <path d="M2.48076923,23 L6.32692308,23" id="Line-Copy-14" stroke="#005825" stroke-width="2" stroke-linecap="square"></path>
            <path d="M2.48076923,29 L6.32692308,29" id="Line-Copy-14" stroke="#005825" stroke-width="2" stroke-linecap="square"></path>
            <path d="M2.48076923,35 L6.32692308,35" id="Line-Copy-14" stroke="#005825" stroke-width="2" stroke-linecap="square"></path>
            <path d="M2.48076923,41 L6.32692308,41" id="Line-Copy-14" stroke="#005825" stroke-width="2" stroke-linecap="square"></path>
        </g>
    </g>
</svg>