<?xml version="1.0" encoding="UTF-8" standalone="no"?>
<svg width="140px" height="140px" viewBox="0 0 140 140" version="1.1" xmlns="http://www.w3.org/2000/svg" xmlns:xlink="http://www.w3.org/1999/xlink">
    <!-- Generator: Sketch 40.1 (33804) - http://www.bohemiancoding.com/sketch -->
    <title>Group 2</title>
    <desc>Created with Sketch.</desc>
    <defs>
        <rect id="path-1" x="0" y="0" width="140" height="140" rx="70"></rect>
    </defs>
    <g id="案例" stroke="none" stroke-width="1" fill="none" fill-rule="evenodd">
        <g id="设计师5-copy" transform="translate(-250.000000, -178.000000)">
            <g id="Group-2" transform="translate(250.000000, 178.000000)">
                <g id="Group-3">
                    <g id="Bitmap-Copy-2">
                        <mask id="mask-2" fill="white">
                            <use xlink:href="#path-1"></use>
                        </mask>
                        <use id="Mask" fill="#F8F9F9" xlink:href="#path-1"></use>
                    </g>
                </g>
                <g id="Group-28" transform="translate(42.000000, 42.000000)" fill="#D7D8DC">
                    <path d="M36.1375882,31.3809294 C40.9610796,28.404202 44.0195208,22.9584633 44.0195208,16.9469849 C44.0195208,7.71369914 36.8648998,0.191544086 27.9920799,0.191544086 C19.1192601,0.191544086 11.9646391,7.71369914 11.9646391,16.9469849 C11.9646391,23.0086324 15.0744175,28.4943205 19.9647409,31.4535463 L19.9144018,32.6196391 C19.8565006,33.48363 19.3314992,34.2977163 18.529714,34.7271685 L5.75032889,41.5775259 C3.07436108,43.0135757 1.25886165,45.6530232 0.873318244,48.6652219 L0.0349627505,55.2510068 L3.73841005,55.722447 L4.5766036,49.1379309 C4.80889163,47.3230992 5.90288836,45.7326019 7.51490656,44.8675171 L20.2929794,38.0178634 C22.2294343,36.9806594 23.4962425,35.0163006 23.6418926,32.8238828 L23.8153882,28.8165379 L22.8391442,28.7743944 L22.839385,28.7739028 C18.5297702,26.662578 15.6979724,22.0837366 15.6979724,16.9469849 C15.6979724,9.73489396 21.2241103,3.92487742 27.9920799,3.92487742 C34.7600496,3.92487742 40.2861875,9.73489396 40.2861875,16.9469849 C40.2861875,22.0700891 37.4695197,26.6388678 33.1758954,28.7583013 L33.1811459,28.7689379 L32.249798,28.8229105 L32.4807463,32.8081404 C32.6273755,35.0163006 33.8941836,36.9806594 35.831185,38.0181562 L48.6094773,44.8679279 C50.2207296,45.7326019 51.3147263,47.3230992 51.5471763,49.1391996 L52.3852079,55.722447 L56.0886552,55.2510068 L55.2504617,48.6664907 C54.8647563,45.6530232 53.0492569,43.0135757 50.3740549,41.5779366 L37.5944504,34.7274613 C36.7921188,34.2977163 36.2671173,33.48363 36.2068475,32.5764097 L36.1375882,31.3809294 Z" id="Combined-Shape"></path>
                </g>
            </g>
        </g>
    </g>
</svg>