<?xml version="1.0" encoding="UTF-8" standalone="no"?>
<svg width="29px" height="44px" viewBox="0 0 29 44" version="1.1" xmlns="http://www.w3.org/2000/svg" xmlns:xlink="http://www.w3.org/1999/xlink">
    <!-- Generator: Sketch 40.1 (33804) - http://www.bohemiancoding.com/sketch -->
    <title>Fill 1</title>
    <desc>Created with Sketch.</desc>
    <defs>
        <linearGradient x1="50%" y1="0%" x2="50%" y2="100%" id="linearGradient-1">
            <stop stop-color="#1BD566" offset="0%"></stop>
            <stop stop-color="#0AC555" offset="100%"></stop>
        </linearGradient>
        <path d="M259.469095,248.487934 C256.66227,248.487934 254.386902,246.212566 254.386902,243.405741 C254.386902,240.598916 256.66227,238.323548 259.469095,238.323548 C262.27592,238.323548 264.551288,240.598916 264.551288,243.405741 C264.551288,246.212566 262.27592,248.487934 259.469095,248.487934 M245,243.47693 C245,248.297648 247.365138,252.555345 250.987953,255.187107 C257.746898,262.018585 259.474915,272.999632 259.474915,272.999632 C259.487228,273.073508 261.218603,261.994631 267.995682,255.164273 C271.601482,252.531392 273.954084,248.283993 273.954084,243.47693 C273.954084,235.4818 267.472284,229 259.477154,229 C251.480681,229 245,235.4818 245,243.47693 Z" id="path-2"></path>
        <filter x="-50%" y="-50%" width="200%" height="200%" filterUnits="objectBoundingBox" id="filter-3">
            <feOffset dx="0" dy="2" in="SourceAlpha" result="shadowOffsetInner1"></feOffset>
            <feComposite in="shadowOffsetInner1" in2="SourceAlpha" operator="arithmetic" k2="-1" k3="1" result="shadowInnerInner1"></feComposite>
            <feColorMatrix values="0 0 0 0 1   0 0 0 0 1   0 0 0 0 1  0 0 0 0.33239923 0" type="matrix" in="shadowInnerInner1"></feColorMatrix>
        </filter>
        <mask id="mask-4" maskContentUnits="userSpaceOnUse" maskUnits="objectBoundingBox" x="0" y="0" width="28.9540841" height="44" fill="white">
            <use xlink:href="#path-2"></use>
        </mask>
    </defs>
    <g id="案例" stroke="none" stroke-width="1" fill="none" fill-rule="evenodd">
        <g id="我的资料4" transform="translate(-245.000000, -229.000000)">
            <g id="Fill-1">
                <use fill="url(#linearGradient-1)" fill-rule="evenodd" xlink:href="#path-2"></use>
                <use fill="black" fill-opacity="1" filter="url(#filter-3)" xlink:href="#path-2"></use>
                <use stroke="#07B54D" mask="url(#mask-4)" stroke-width="2" xlink:href="#path-2"></use>
            </g>
        </g>
    </g>
</svg>