<?xml version="1.0" encoding="UTF-8" standalone="no"?>
<svg width="41px" height="39px" viewBox="0 0 41 39" version="1.1" xmlns="http://www.w3.org/2000/svg" xmlns:xlink="http://www.w3.org/1999/xlink">
    <!-- Generator: Sketch 40.1 (33804) - http://www.bohemiancoding.com/sketch -->
    <title>Group 2</title>
    <desc>Created with Sketch.</desc>
    <defs></defs>
    <g id="案例" stroke="none" stroke-width="1" fill="none" fill-rule="evenodd">
        <g id="收藏关注" transform="translate(-568.000000, -601.000000)" stroke-width="2">
            <g id="Group-2" transform="translate(571.000000, 604.000000)">
                <polygon id="Stroke-2" stroke="#F6A623" fill="#F6A623" points="30.3847347 12.1753469 35.6047347 12.933551 26.7039184 21.6102857 28.8051429 33.8620408 17.8023673 28.0777959 6.80032653 33.8620408 8.90155102 21.6102857 0 12.933551 12.3009796 11.1467755 17.8023673 0 23.3037551 11.1467755 27.3783673 11.7382041"></polygon>
                <polyline id="Stroke-2" stroke="#3B4046" points="30.4393959 12.2710041 35.6593959 13.0292082 26.7585796 21.7059429 28.8598041 33.957698 17.8570286 28.1734531 6.85498776 33.957698 8.95621224 21.7059429 0.0546612245 13.0292082 12.3556408 11.2424327 17.8570286 0.0956571429 23.3584163 11.2424327 27.4330286 11.8338612"></polyline>
                <g id="Group-7" transform="translate(12.000000, 15.000000)" stroke="#3B4046" stroke-linecap="square">
                    <path d="M0.958925068,4.95892507 L4.02268028,8.02268028" id="Line"></path>
                    <path d="M4.5,0.5 L11.0226803,8.02268028" id="Line" transform="translate(8.000000, 4.500000) scale(1, -1) translate(-8.000000, -4.500000) "></path>
                </g>
            </g>
        </g>
    </g>
</svg>