<?xml version="1.0" encoding="UTF-8" standalone="no"?>
<svg width="36px" height="36px" viewBox="0 0 36 36" version="1.1" xmlns="http://www.w3.org/2000/svg" xmlns:xlink="http://www.w3.org/1999/xlink">
    <!-- Generator: Sketch 40.3 (33839) - http://www.bohemiancoding.com/sketch -->
    <title>wxc-icon-description</title>
    <desc>Created with Sketch.</desc>
    <defs>
        <path d="M0,2.00174332 C0,0.89621101 0.892026777,0 1.9964208,0 L22.0581811,0 L27.4285702,4.84299033 L27.4285713,30.0030802 C27.4285714,31.1059486 26.5315679,32 25.4338822,32 L1.99468921,32 C0.893052778,32 0,31.1107383 0,29.9982567 L0,2.00174332 Z" id="path-1"></path>
        <mask id="mask-2" maskContentUnits="userSpaceOnUse" maskUnits="objectBoundingBox" x="0" y="0" width="27.4285713" height="32" fill="white">
            <use xlink:href="#path-1"></use>
        </mask>
    </defs>
    <g id="案例" stroke="none" stroke-width="1" fill="none" fill-rule="evenodd">
        <g id="待办事项-copy" transform="translate(4.000000, 2.000000)">
            <use id="Rectangle-1251" stroke="#005825" mask="url(#mask-2)" stroke-width="4" xlink:href="#path-1"></use>
            <path d="M4.44444444,9.77777778 L13.8311111,9.77777778" id="Stroke-3" stroke="#005825" stroke-width="2" stroke-linejoin="bevel"></path>
            <path d="M4.44444444,16.8888889 L13.8311111,16.8888889" id="Stroke-4" stroke="#005825" stroke-width="2" stroke-linejoin="bevel"></path>
            <path d="M4.44444444,23.1111111 L13.8311111,23.1111111" id="Stroke-5" stroke="#005825" stroke-width="2" stroke-linejoin="bevel"></path>
            <polyline id="Stroke-10" stroke="#00B642" stroke-width="2" stroke-linejoin="bevel" points="17.7777778 9.15733333 19.6088889 10.9884444 22.5973333 8"></polyline>
            <polyline id="Stroke-12" stroke="#00B642" stroke-width="2" stroke-linejoin="bevel" points="17.7777778 15.3795556 19.6088889 17.2106667 22.5973333 14.2222222"></polyline>
            <polyline id="Stroke-14" stroke="#00B642" stroke-width="2" stroke-linejoin="bevel" points="17.7777778 21.6017778 19.6088889 23.4328889 22.5973333 20.4444444"></polyline>
        </g>
    </g>
</svg>