<?xml version="1.0" encoding="UTF-8" standalone="no"?>
<svg width="36px" height="36px" viewBox="0 0 36 36" version="1.1" xmlns="http://www.w3.org/2000/svg" xmlns:xlink="http://www.w3.org/1999/xlink">
    <!-- Generator: Sketch 40.3 (33839) - http://www.bohemiancoding.com/sketch -->
    <title>wxc-icon-message</title>
    <desc>Created with Sketch.</desc>
    <defs></defs>
    <g id="案例" stroke="none" stroke-width="1" fill="none" fill-rule="evenodd">
        <g id="消息-copy" transform="translate(2.000000, 4.000000)">
            <polygon id="Stroke-1" stroke="#005825" stroke-width="2" stroke-linejoin="bevel" points="31.2053943 0.457142857 0.457051429 0.457142857 0.457051429 23.0665143 5.05773714 23.0665143 5.10710857 28.9033143 13.5523657 23.0665143 31.2053943 23.0665143"></polygon>
            <path d="M9.99405714,12.6065371 C9.99405714,14.1507657 8.7424,15.4015086 7.19908571,15.4015086 C5.65485714,15.4015086 4.4032,14.1507657 4.4032,12.6065371 C4.4032,11.0623086 5.65485714,9.81156571 7.19908571,9.81156571 C8.7424,9.81156571 9.99405714,11.0623086 9.99405714,12.6065371" id="Fill-3" fill="#00B642"></path>
            <path d="M9.99405714,12.6065371 C9.99405714,14.1507657 8.7424,15.4015086 7.19908571,15.4015086 C5.65485714,15.4015086 4.4032,14.1507657 4.4032,12.6065371 C4.4032,11.0623086 5.65485714,9.81156571 7.19908571,9.81156571 C8.7424,9.81156571 9.99405714,11.0623086 9.99405714,12.6065371 L9.99405714,12.6065371 Z" id="Stroke-5" stroke="#005825" stroke-width="2"></path>
            <path d="M18.62656,12.6065371 C18.62656,14.1507657 17.3749029,15.4015086 15.8315886,15.4015086 C14.28736,15.4015086 13.0357029,14.1507657 13.0357029,12.6065371 C13.0357029,11.0623086 14.28736,9.81156571 15.8315886,9.81156571 C17.3749029,9.81156571 18.62656,11.0623086 18.62656,12.6065371" id="Fill-7" fill="#00B642"></path>
            <path d="M18.62656,12.6065371 C18.62656,14.1507657 17.3749029,15.4015086 15.8315886,15.4015086 C14.28736,15.4015086 13.0357029,14.1507657 13.0357029,12.6065371 C13.0357029,11.0623086 14.28736,9.81156571 15.8315886,9.81156571 C17.3749029,9.81156571 18.62656,11.0623086 18.62656,12.6065371 L18.62656,12.6065371 Z" id="Stroke-9" stroke="#005825" stroke-width="2"></path>
            <path d="M27.2591543,12.6065371 C27.2591543,14.1507657 26.0074971,15.4015086 24.4641829,15.4015086 C22.9199543,15.4015086 21.6682971,14.1507657 21.6682971,12.6065371 C21.6682971,11.0623086 22.9199543,9.81156571 24.4641829,9.81156571 C26.0074971,9.81156571 27.2591543,11.0623086 27.2591543,12.6065371" id="Fill-11" fill="#00B642"></path>
            <path d="M27.2591543,12.6065371 C27.2591543,14.1507657 26.0074971,15.4015086 24.4641829,15.4015086 C22.9199543,15.4015086 21.6682971,14.1507657 21.6682971,12.6065371 C21.6682971,11.0623086 22.9199543,9.81156571 24.4641829,9.81156571 C26.0074971,9.81156571 27.2591543,11.0623086 27.2591543,12.6065371 L27.2591543,12.6065371 Z" id="Stroke-13" stroke="#005825" stroke-width="2"></path>
        </g>
    </g>
</svg>