<?xml version="1.0" encoding="UTF-8" standalone="no"?>
<svg width="46px" height="40px" viewBox="0 0 46 40" version="1.1" xmlns="http://www.w3.org/2000/svg" xmlns:xlink="http://www.w3.org/1999/xlink">
    <!-- Generator: Sketch 40.1 (33804) - http://www.bohemiancoding.com/sketch -->
    <title>Page 1</title>
    <desc>Created with Sketch.</desc>
    <defs></defs>
    <g id="案例" stroke="none" stroke-width="1" fill="none" fill-rule="evenodd" stroke-linejoin="bevel">
        <g id="部落－发布帖子(内容)" transform="translate(-141.000000, -568.000000)" stroke="#61676F" stroke-width="2">
            <g id="Page-1" transform="translate(142.000000, 569.000000)">
                <path d="M0,18.9999 L0,35.9999 C0,37.0999 0.9,37.9999 2,37.9999 L42,37.9999 C43.1,37.9999 44,37.0999 44,35.9999 L44,7.9999 C44,6.8999 43.1,5.9999 42,5.9999 L34,5.9999 C34.55,5.9999 35,5.6629 35,5.2499 L33,0.7499 C33,0.3379 32.55,-9.99999993e-05 32,-9.99999993e-05 L12,-9.99999993e-05 C11.45,-9.99999993e-05 11,0.3379 11,0.7499 L9,5.2499 C9,5.6629 9.45,5.9999 10,5.9999 L2,5.9999 C0.9,5.9999 0,6.8999 0,7.9999 L0,13.9289" id="Stroke-1" transform="translate(22.000000, 18.999900) scale(-1, 1) translate(-22.000000, -18.999900) "></path>
                <path d="M31,22 C31,26.971 26.971,31 22,31 C17.029,31 13,26.971 13,22 C13,17.029 17.029,13 22,13 C26.971,13 31,17.029 31,22 L31,22 Z" id="Stroke-3"></path>
                <path d="M34.4953,13.9286 L38.4953,13.9286" id="Stroke-5"></path>
            </g>
        </g>
    </g>
</svg>