<?xml version="1.0" encoding="UTF-8" standalone="no"?>
<svg width="40px" height="40px" viewBox="0 0 40 40" version="1.1" xmlns="http://www.w3.org/2000/svg" xmlns:xlink="http://www.w3.org/1999/xlink">
    <!-- Generator: Sketch 40.1 (33804) - http://www.bohemiancoding.com/sketch -->
    <title>Group 2 Copy</title>
    <desc>Created with Sketch.</desc>
    <defs>
        <rect id="path-1" x="0" y="0" width="40" height="40" rx="20"></rect>
    </defs>
    <g id="案例" stroke="none" stroke-width="1" fill="none" fill-rule="evenodd">
        <g id="Group-2-Copy">
            <g id="Group-3">
                <g id="Bitmap-Copy-2">
                    <mask id="mask-2" fill="white">
                        <use xlink:href="#path-1"></use>
                    </mask>
                    <use id="Mask" fill="#F8F9F9" xlink:href="#path-1"></use>
                </g>
            </g>
            <g id="Group-28" transform="translate(12.000000, 12.000000)" fill="#D7D8DC">
                <path d="M10.3250252,8.96597984 C11.7031656,8.11548628 12.5770059,6.55956094 12.5770059,4.8419957 C12.5770059,2.20391404 10.5328285,0.0547268817 7.99773713,0.0547268817 C5.46264574,0.0547268817 3.41846831,2.20391404 3.41846831,4.8419957 C3.41846831,6.57389497 4.30697642,8.14123443 5.70421167,8.9867275 L5.68982908,9.31989688 C5.67328589,9.56675142 5.52328547,9.79934753 5.294204,9.92204816 L1.64295111,11.8792931 C0.878388879,12.2895931 0.359674756,13.0437209 0.249519498,13.9043491 L0.0099893573,15.7860019 L1.06811716,15.9206991 L1.30760103,14.0394088 C1.37396904,13.5208855 1.68653953,13.0664577 2.14711616,12.8192906 L5.79799411,10.8622467 C6.35126695,10.5659027 6.71321214,10.0046573 6.75482646,9.37825223 L6.80439664,8.23329654 L6.52546976,8.22125555 L6.52553858,8.22111508 C5.29422006,7.61787944 4.48513498,6.30963902 4.48513498,4.8419957 C4.48513498,2.78139827 6.06403153,1.12139355 7.99773713,1.12139355 C9.93144273,1.12139355 11.5103393,2.78139827 11.5103393,4.8419957 C11.5103393,6.30573975 10.7055771,7.6111051 9.47882726,8.21665751 L9.48032741,8.21969655 L9.214228,8.23511729 L9.28021323,9.37375439 C9.32210728,10.0046573 9.68405247,10.5659027 10.2374814,10.8623303 L13.8884221,12.819408 C14.3487799,13.0664577 14.6613504,13.5208855 14.7277647,14.0397713 L14.9672023,15.9206991 L16.0253301,15.7860019 L15.7858462,13.9047116 C15.6756447,13.0437209 15.1569305,12.2895931 14.3925871,11.8794105 L10.7412715,9.92213181 C10.5120339,9.79934753 10.3620335,9.56675142 10.3448136,9.30754562 L10.3250252,8.96597984 Z" id="Combined-Shape"></path>
            </g>
        </g>
    </g>
</svg>