<?xml version="1.0" encoding="UTF-8" standalone="no"?>
<svg width="40px" height="40px" viewBox="0 0 40 40" version="1.1" xmlns="http://www.w3.org/2000/svg" xmlns:xlink="http://www.w3.org/1999/xlink">
    <!-- Generator: Sketch 40.1 (33804) - http://www.bohemiancoding.com/sketch -->
    <title>Slice 3</title>
    <desc>Created with Sketch.</desc>
    <defs></defs>
    <g id="案例" stroke="none" stroke-width="1" fill="none" fill-rule="evenodd">
        <g id="验证码-copy" transform="translate(3.000000, 5.000000)">
            <polyline id="Stroke-1" stroke="#B8B8C1" stroke-width="2" points="0 8.7719 0 -0.0001 34 -0.0001 34 8.7719"></polyline>
            <polyline id="Stroke-3" stroke="#B8B8C1" stroke-width="2" points="0 20.8168 0 29.5888 34 29.5888 34 20.8168"></polyline>
            <path d="M8.869,8.058 L8.869,21.531 L6.812,21.531 L6.812,10.53 C6.001,11.303 4.963,11.87 3.718,12.228 L3.718,10.19 C4.322,10.039 4.944,9.776 5.624,9.398 C6.303,8.982 6.869,8.548 7.322,8.058 L8.869,8.058 Z" id="Fill-5" fill="#B8B8C1"></path>
            <path d="M18.595,8.9076 C19.407,9.6616 19.822,10.6236 19.822,11.8136 C19.822,12.9826 19.369,14.0396 18.501,15.0026 C17.972,15.5486 17.048,16.2666 15.708,17.1726 C14.255,18.1346 13.387,18.9826 13.104,19.7196 L19.841,19.7196 L19.841,21.5306 L10.557,21.5306 C10.557,20.1906 10.991,19.0206 11.897,18.0026 C12.387,17.4176 13.406,16.6056 14.934,15.5486 C15.84,14.9076 16.481,14.3976 16.859,14.0016 C17.463,13.3226 17.783,12.5866 17.783,11.7936 C17.783,11.0396 17.576,10.4736 17.161,10.0956 C16.746,9.7176 16.123,9.5306 15.331,9.5306 C14.482,9.5306 13.84,9.8126 13.406,10.3986 C12.953,10.9636 12.727,11.7756 12.689,12.8706 L10.632,12.8706 C10.651,11.3596 11.085,10.1516 11.934,9.2476 C12.802,8.2656 13.972,7.7946 15.406,7.7946 C16.689,7.7946 17.765,8.1526 18.595,8.9076" id="Fill-7" fill="#B8B8C1"></path>
            <path d="M28.8103,8.7752 C29.6033,9.4362 30.0183,10.3412 30.0183,11.4922 C30.0183,12.9642 29.2633,13.9642 27.7913,14.4552 C28.5843,14.7002 29.1883,15.0772 29.6033,15.5682 C30.0563,16.0772 30.2823,16.7382 30.2823,17.5302 C30.2823,18.7762 29.8483,19.7942 28.9993,20.5872 C28.0933,21.3802 26.9043,21.7942 25.4703,21.7942 C24.0933,21.7942 22.9803,21.4362 22.1493,20.7382 C21.2063,19.9452 20.6773,18.7942 20.5643,17.2852 L22.6403,17.2852 C22.6773,18.1912 22.9613,18.8882 23.5263,19.3792 C24.0173,19.8322 24.6593,20.0592 25.4513,20.0592 C26.3193,20.0592 27.0183,19.7942 27.5463,19.3042 C27.9983,18.8522 28.2443,18.3042 28.2443,17.6242 C28.2443,16.8322 27.9983,16.2482 27.5083,15.8702 C27.0553,15.4922 26.3763,15.3042 25.4893,15.3042 L24.5083,15.3042 L24.5083,13.7562 L25.4703,13.7562 C26.3003,13.7562 26.9233,13.5682 27.3383,13.2092 C27.7533,12.8502 27.9803,12.3222 27.9803,11.6432 C27.9803,10.9632 27.7723,10.4552 27.3953,10.0952 C26.9803,9.7182 26.3573,9.5492 25.5653,9.5492 C24.7533,9.5492 24.1113,9.7562 23.6593,10.1712 C23.2063,10.5862 22.9233,11.2092 22.8473,12.0402 L20.8293,12.0402 C20.9413,10.7002 21.4323,9.6612 22.3193,8.9072 C23.1493,8.1522 24.2253,7.7942 25.5463,7.7942 C26.9043,7.7942 27.9803,8.1142 28.8103,8.7752" id="Fill-9" fill="#B8B8C1"></path>
        </g>
    </g>
</svg>