<?xml version="1.0" encoding="UTF-8" standalone="no"?>
<svg width="150px" height="23px" viewBox="0 0 150 23" version="1.1" xmlns="http://www.w3.org/2000/svg" xmlns:xlink="http://www.w3.org/1999/xlink">
    <!-- Generator: Sketch 40.1 (33804) - http://www.bohemiancoding.com/sketch -->
    <title>Group 50</title>
    <desc>Created with Sketch.</desc>
    <defs>
        <polygon id="path-1" points="12 0.0007 8.291 7.4657 0 8.6637 6 14.4737 4.583 22.6777 12 18.8057 19.415 22.6777 17.999 14.4737 24.001 8.6637 20.482 8.1547 19.258 7.9787 18.454 7.8627 18.438 7.8597 17.983 9.8157 18.169 9.8417 18.973 9.9577 19.682 10.0597 16.608 13.0367 15.848 13.7717 16.028 14.8137 16.757 19.0327 12.925 17.0327 12 16.5487 11.074 17.0327 7.242 19.0327 7.971 14.8137 8.151 13.7727 7.391 13.0367 4.318 10.0597 8.577 9.4457 9.616 9.2947 10.082 8.3557 12 4.4957 13.917 8.3557 14.384 9.2947 15.423 9.4457 16.202 9.5577 16.657 7.6017 15.708 7.4657"></polygon>
        <mask id="mask-2" maskContentUnits="userSpaceOnUse" maskUnits="objectBoundingBox" x="0" y="0" width="24" height="22.6777" fill="white">
            <use xlink:href="#path-1"></use>
        </mask>
        <polygon id="path-3" points="44 0.0007 40.291 7.4657 32 8.6637 38 14.4737 36.583 22.6777 44 18.8057 51.415 22.6777 49.999 14.4737 56.001 8.6637 52.482 8.1547 51.258 7.9787 50.454 7.8627 50.438 7.8597 49.983 9.8157 50.169 9.8417 50.973 9.9577 51.682 10.0597 48.608 13.0367 47.848 13.7717 48.028 14.8137 48.757 19.0327 44.925 17.0327 44 16.5487 43.074 17.0327 39.242 19.0327 39.971 14.8137 40.151 13.7727 39.391 13.0367 36.318 10.0597 40.577 9.4457 41.616 9.2947 42.082 8.3557 44 4.4957 45.917 8.3557 46.384 9.2947 47.423 9.4457 48.202 9.5577 48.657 7.6017 47.708 7.4657"></polygon>
        <mask id="mask-4" maskContentUnits="userSpaceOnUse" maskUnits="objectBoundingBox" x="0" y="0" width="24" height="22.6777" fill="white">
            <use xlink:href="#path-3"></use>
        </mask>
        <polygon id="path-5" points="75 0.0007 71.291 7.4657 63 8.6637 69 14.4737 67.583 22.6777 75 18.8057 82.415 22.6777 80.999 14.4737 87.001 8.6637 83.482 8.1547 82.258 7.9787 81.454 7.8627 81.438 7.8597 80.983 9.8157 81.169 9.8417 81.973 9.9577 82.682 10.0597 79.608 13.0367 78.848 13.7717 79.028 14.8137 79.757 19.0327 75.925 17.0327 75 16.5487 74.074 17.0327 70.242 19.0327 70.971 14.8137 71.151 13.7727 70.391 13.0367 67.318 10.0597 71.577 9.4457 72.616 9.2947 73.082 8.3557 75 4.4957 76.917 8.3557 77.384 9.2947 78.423 9.4457 79.202 9.5577 79.657 7.6017 78.708 7.4657"></polygon>
        <mask id="mask-6" maskContentUnits="userSpaceOnUse" maskUnits="objectBoundingBox" x="0" y="0" width="24" height="22.6777" fill="white">
            <use xlink:href="#path-5"></use>
        </mask>
        <polygon id="path-7" points="107 0.0007 103.291 7.4657 95 8.6637 101 14.4737 99.583 22.6777 107 18.8057 114.415 22.6777 112.999 14.4737 119.001 8.6637 115.482 8.1547 114.258 7.9787 113.454 7.8627 113.438 7.8597 112.983 9.8157 113.169 9.8417 113.973 9.9577 114.682 10.0597 111.608 13.0367 110.848 13.7717 111.028 14.8137 111.757 19.0327 107.925 17.0327 107 16.5487 106.074 17.0327 102.242 19.0327 102.971 14.8137 103.151 13.7727 102.391 13.0367 99.318 10.0597 103.577 9.4457 104.616 9.2947 105.082 8.3557 107 4.4957 108.917 8.3557 109.384 9.2947 110.423 9.4457 111.202 9.5577 111.657 7.6017 110.708 7.4657"></polygon>
        <mask id="mask-8" maskContentUnits="userSpaceOnUse" maskUnits="objectBoundingBox" x="0" y="0" width="24" height="22.6777" fill="white">
            <use xlink:href="#path-7"></use>
        </mask>
        <polygon id="path-9" points="138 0.0007 134.291 7.4657 126 8.6637 132 14.4737 130.583 22.6777 138 18.8057 145.415 22.6777 143.999 14.4737 150.001 8.6637 146.482 8.1547 145.258 7.9787 144.454 7.8627 144.438 7.8597 143.983 9.8157 144.169 9.8417 144.973 9.9577 145.682 10.0597 142.608 13.0367 141.848 13.7717 142.028 14.8137 142.757 19.0327 138.925 17.0327 138 16.5487 137.074 17.0327 133.242 19.0327 133.971 14.8137 134.151 13.7727 133.391 13.0367 130.318 10.0597 134.577 9.4457 135.616 9.2947 136.082 8.3557 138 4.4957 139.917 8.3557 140.384 9.2947 141.423 9.4457 142.202 9.5577 142.657 7.6017 141.708 7.4657"></polygon>
        <mask id="mask-10" maskContentUnits="userSpaceOnUse" maskUnits="objectBoundingBox" x="0" y="0" width="24" height="22.6777" fill="white">
            <use xlink:href="#path-9"></use>
        </mask>
    </defs>
    <g id="案例" stroke="none" stroke-width="1" fill="none" fill-rule="evenodd">
        <g id="Group-50" stroke="#B8B8C1" stroke-width="4">
            <use id="Page-1" mask="url(#mask-2)" xlink:href="#path-1"></use>
            <use id="Page-1-Copy-33" mask="url(#mask-4)" xlink:href="#path-3"></use>
            <use id="Page-1-Copy-34" mask="url(#mask-6)" xlink:href="#path-5"></use>
            <use id="Page-1-Copy-35" mask="url(#mask-8)" xlink:href="#path-7"></use>
            <use id="Page-1-Copy-36" mask="url(#mask-10)" xlink:href="#path-9"></use>
        </g>
    </g>
</svg>