<?xml version="1.0" encoding="UTF-8" standalone="no"?>
<svg width="70px" height="70px" viewBox="0 0 70 70" version="1.1" xmlns="http://www.w3.org/2000/svg" xmlns:xlink="http://www.w3.org/1999/xlink">
    <!-- Generator: Sketch 40.1 (33804) - http://www.bohemiancoding.com/sketch -->
    <title>微信好友</title>
    <desc>Created with Sketch.</desc>
    <defs>
        <polyline id="path-1" points="0 0 46.371434 0 46.371434 37.7735849 0 37.7735849"></polyline>
        <polyline id="path-3" points="0 0 46.371434 0 46.371434 37.7735849 0 37.7735849"></polyline>
    </defs>
    <g id="案例" stroke="none" stroke-width="1" fill="none" fill-rule="evenodd">
        <g id="设计师5-copy-4" transform="translate(-68.000000, -815.000000)">
            <g id="微信好友" transform="translate(68.000000, 815.000000)">
                <rect id="Rectangle-740" fill="#39BF1E" x="0" y="0" width="70" height="70" rx="35"></rect>
                <g id="Page-1" transform="translate(11.666667, 15.833333)">
                    <g id="Group-3">
                        <mask id="mask-2" fill="white">
                            <use xlink:href="#path-1"></use>
                        </mask>
                        <g id="Clip-2"></g>
                        <path d="M11.0805906,11.0814623 C9.8500434,11.0814623 8.60932642,10.2577075 8.60932642,9.02716038 C8.60932642,7.79225472 9.8500434,6.97866981 11.0805906,6.97866981 C12.3111377,6.97866981 13.1290811,7.79225472 13.1290811,9.02716038 C13.1290811,10.2577075 12.3111377,11.0814623 11.0805906,11.0814623 M22.566666,6.97866981 C23.8030245,6.97866981 24.6209679,7.79225472 24.6209679,9.02716038 C24.6209679,10.2577075 23.8030245,11.0814623 22.566666,11.0814623 C21.3375717,11.0814623 20.102666,10.2577075 20.102666,9.02716038 C20.102666,7.79225472 21.3375717,6.97866981 22.566666,6.97866981 M31.3911566,11.4286887 C31.9243453,11.4286887 32.4502698,11.4679151 32.9718358,11.5260283 C31.5524208,4.91274528 24.4829491,0.000726415094 16.4124774,0.000726415094 C7.39040189,0.000726415094 -0.00014528302,6.14910377 -0.00014528302,13.958066 C-0.00014528302,18.4661981 2.4580434,22.1680094 6.5681,25.0388019 L4.92640189,29.9755189 L10.6636283,27.0989151 C12.7164774,27.5057075 14.3639868,27.9226698 16.4124774,27.9226698 C16.9267792,27.9226698 17.4381755,27.8979717 17.9452132,27.8572925 C17.6241377,26.7604057 17.4381755,25.611217 17.4381755,24.4184434 C17.4381755,17.2487264 23.5952698,11.4286887 31.3911566,11.4286887" id="Fill-1" fill="#FFFFFF" mask="url(#mask-2)"></path>
                    </g>
                    <g id="Group-6">
                        <mask id="mask-4" fill="white">
                            <use xlink:href="#path-3"></use>
                        </mask>
                        <g id="Clip-5"></g>
                        <path d="M36.9322509,22.1677189 C36.1201189,22.1677189 35.3021755,21.354134 35.3021755,20.5260208 C35.3021755,19.7080774 36.1201189,18.8843226 36.9322509,18.8843226 C38.1627981,18.8843226 38.9865528,19.7080774 38.9865528,20.5260208 C38.9865528,21.354134 38.1627981,22.1677189 36.9322509,22.1677189 M27.9043642,22.1677189 C27.0878736,22.1677189 26.262666,21.354134 26.262666,20.5260208 C26.262666,19.7080774 27.0878736,18.8843226 27.9043642,18.8843226 C29.146534,18.8843226 29.958666,19.7080774 29.958666,20.5260208 C29.958666,21.354134 29.146534,22.1677189 27.9043642,22.1677189 M46.3712887,24.2220208 C46.3712887,17.6595868 39.8044962,12.310266 32.4299302,12.310266 C24.6209679,12.310266 18.4711377,17.6595868 18.4711377,24.2220208 C18.4711377,30.7946245 24.6209679,36.1323226 32.4299302,36.1323226 C34.0643642,36.1323226 35.7133264,35.7197189 37.3550245,35.3085679 L41.8573453,37.7740208 L40.6224396,33.6726811 C43.9174585,31.1999642 46.3712887,27.9223792 46.3712887,24.2220208" id="Fill-4" fill="#FFFFFF" mask="url(#mask-4)"></path>
                    </g>
                </g>
            </g>
        </g>
    </g>
</svg>