<?xml version="1.0" encoding="UTF-8" standalone="no"?>
<svg width="40px" height="40px" viewBox="0 0 40 40" version="1.1" xmlns="http://www.w3.org/2000/svg" xmlns:xlink="http://www.w3.org/1999/xlink">
    <!-- Generator: Sketch 40.1 (33804) - http://www.bohemiancoding.com/sketch -->
    <title>Slice Copy 4</title>
    <desc>Created with Sketch.</desc>
    <defs></defs>
    <g id="案例" stroke="none" stroke-width="1" fill="none" fill-rule="evenodd" stroke-linejoin="bevel">
        <g id="我的" transform="translate(5.000000, 5.000000)" stroke="#61676F" stroke-width="2">
            <path d="M12.4228235,17.1679412 C10.6616471,16.305 9.44047059,14.4273529 9.44047059,12.2488235 C9.44047059,9.25411765 11.7504706,6.82588235 14.5987059,6.82588235 C17.4478235,6.82588235 19.7569412,9.25411765 19.7569412,12.2488235 C19.7569412,14.4211765 18.5428235,16.2952941 16.7887059,17.1617647" id="Stroke-16"></path>
            <path d="M12.4134706,16.8227647 L12.3358235,17.9874706 C12.2978824,18.5521765 11.9722941,19.0577647 11.4728824,19.3251176 L6.81847059,21.8204118 C6.03758824,22.2395294 5.50729412,23.0098235 5.39523529,23.8895294" id="Stroke-18"></path>
            <path d="M16.8352941,16.8227647 L16.9129412,17.9874706 C16.9508824,18.5521765 17.2764706,19.0577647 17.7758824,19.3251176 L22.4302941,21.8204118 C23.2111765,22.2395294 23.7414706,23.0098235 23.8535294,23.8895294 L24.1985294,26.496" id="Stroke-20"></path>
            <path d="M21.5786471,28.0532647 C19.5086471,29.1941471 17.1333529,29.8426765 14.6080588,29.8426765 C6.56364706,29.8426765 0.0421764706,23.2612059 0.0421764706,15.1417941 C0.0421764706,7.02326471 6.56364706,0.440911765 14.6080588,0.440911765 C22.6524706,0.440911765 29.1739412,7.02326471 29.1739412,15.1417941 C29.1739412,19.4212059 27.3624706,23.2726765 24.471,25.9594412 L24.1983529,26.1535588" id="Stroke-32"></path>
        </g>
    </g>
</svg>