<?xml version="1.0" encoding="UTF-8" standalone="no"?>
<svg width="33px" height="50px" viewBox="0 0 33 50" version="1.1" xmlns="http://www.w3.org/2000/svg" xmlns:xlink="http://www.w3.org/1999/xlink">
    <!-- Generator: Sketch 40.1 (33804) - http://www.bohemiancoding.com/sketch -->
    <title>Page 3</title>
    <desc>Created with Sketch.</desc>
    <defs></defs>
    <g id="Page-1" stroke="none" stroke-width="1" fill="none" fill-rule="evenodd">
        <g id="Page-3" transform="translate(1.000000, 1.000000)">
            <path d="M13.1424205,13.7463758 C11.9120114,13.2857697 9.83921591,13.6804364 8.53864773,14.2981333 C7.92344318,14.5900121 6.58946591,15.3793455 5.352375,16.1308606 C6.50880682,18.8324364 8.80257955,20.9153455 11.6218295,21.7599515 C12.0656932,21.8957091 12.4284205,22.1672242 12.6956932,22.5211636 L12.7195568,22.5017697 L13.5595568,23.1514667 C14.4806932,23.8593455 15.7550114,23.8738909 16.6904659,23.1805576 L17.6020568,22.5066182 L17.6068295,22.5017697 C17.8645568,22.1284364 18.2368295,21.8423758 18.6806932,21.6969212 C22.4630795,20.4741333 25.2541705,17.006497 25.5348068,12.8324364 C23.3403068,13.4375273 19.4996932,14.8154667 18.1943523,14.9308606 C16.7047841,15.0622545 14.3728295,14.2069818 13.1424205,13.7463758" id="Fill-1" fill="#00B642"></path>
            <path d="M25.5627273,4.85338182 L4.53886364,4.85338182 L4.53886364,12.1406545 C4.53886364,13.5593212 4.82952273,14.9081697 5.35261364,16.1309576 C6.58922727,15.3794424 7.92320455,14.5901091 8.53840909,14.2982303 C9.83945455,13.6805333 11.9117727,13.2858667 13.1421818,13.7464727 C14.3730682,14.2070788 16.7045455,15.0623515 18.1941136,14.9304727 C19.4994545,14.8155636 23.3405455,13.4376242 25.5350455,12.8325333 C25.5503182,12.6032 25.5627273,12.3733818 25.5627273,12.1406545 L25.5627273,4.85338182 Z" id="Fill-3" fill="#DCF0F9"></path>
            <path d="M25.5627273,4.85333333 L4.53886364,4.85333333 L3.71795455,4.85333333 C1.79931818,4.85333333 0.238636364,3.27272727 0.238636364,1.31878788 L0.238636364,0.242424242 L30.1015909,0.242424242 L30.1015909,1.31878788 C30.1015909,3.27272727 28.5409091,4.85333333 26.6175,4.85333333 L25.5627273,4.85333333 Z" id="Fill-5" fill="#B8E986"></path>
            <path d="M26.6175,43.3890909 C28.5409091,43.3890909 30.1015909,44.9745455 30.1015909,46.9284848 L30.1015909,48 L0.238636364,48 L0.238636364,46.9284848 C0.238636364,44.9745455 1.79931818,43.3890909 3.71795455,43.3890909 L4.53886364,43.3890909 L4.72022727,43.3890909 L25.5627273,43.3890909 L25.6677273,43.3890909 L26.6175,43.3890909 Z" id="Fill-7" fill="#B8E986"></path>
            <polygon id="Fill-9" fill="#FEFEFE" points="25.6864773 43.399596 25.5627273 43.399596 25.5627273 43.3260606"></polygon>
            <path d="M25.5627273,43.3260606 L25.5627273,43.3890909 L4.72022727,43.3890909 L13.5736364,38.3563636 C14.7620455,37.6824242 16.2129545,37.6969697 17.3870455,38.4048485 L25.5627273,43.3260606 Z" id="Fill-11" fill="#8ED385"></path>
            <path d="M13.5593182,23.1515152 C14.4804545,23.8593939 15.7547727,23.8739394 16.6902273,23.1806061 L17.6018182,22.5066667 C17.3488636,22.88 17.2009091,23.3357576 17.2009091,23.8109091 L17.2009091,24.0290909 C17.2009091,24.9842424 17.8022727,25.8084848 18.6852273,26.1381818 C22.6990909,27.6412121 25.5627273,31.5636364 25.5627273,36.16 L25.5627273,43.3260606 L17.3870455,38.4048485 C16.2129545,37.6969697 14.7620455,37.6824242 13.5736364,38.3563636 L4.72022727,43.3890909 L4.53886364,43.3890909 L4.53886364,36.16 C4.53886364,31.4860606 7.49318182,27.52 11.6120455,26.070303 C12.5140909,25.7551515 13.1393182,24.9163636 13.1393182,23.9466667 L13.1393182,23.8836364 C13.1393182,23.3793939 12.9770455,22.9042424 12.6954545,22.5212121 L12.7193182,22.5018182 L13.5593182,23.1515152 Z" id="Fill-13" fill="#DCF0F9"></path>
            <path d="M4.53886364,4.85333333 L3.71795455,4.85333333 C1.79931818,4.85333333 0.238636364,3.27272727 0.238636364,1.31878788 L0.238636364,0.242424242 L30.1015909,0.242424242 L30.1015909,1.31878788 C30.1015909,3.27272727 28.5409091,4.85333333 26.6175,4.85333333 L25.5627273,4.85333333 L4.53886364,4.85333333 L4.53886364,4.85333333 Z" id="Stroke-15" stroke="#005825" stroke-width="2"></path>
            <path d="M4.53886364,43.3890909 L3.71795455,43.3890909 C1.79931818,43.3890909 0.238636364,44.9745455 0.238636364,46.9284848 L0.238636364,48 L30.1015909,48 L30.1015909,46.9284848 C30.1015909,44.9745455 28.5409091,43.3890909 26.6175,43.3890909 L25.6677273,43.3890909 L25.5627273,43.3890909 L4.72022727,43.3890909 L4.53886364,43.3890909 L4.53886364,43.3890909 Z" id="Stroke-17" stroke="#005825" stroke-width="2"></path>
            <path d="M23.7443182,13.4012121 L20.6754545,14.550303 C19.2197727,15.0933333 17.6256818,15.1418182 16.1365909,14.6860606 L13.6404545,13.92 C11.9509091,13.4012121 10.1372727,13.5369697 8.53840909,14.2981818 L6.54340909,15.2484848" id="Stroke-19" stroke="#005825" stroke-width="2"></path>
            <path d="M4.72022727,43.3890909 L13.5736364,38.3563636 C14.7620455,37.6824242 16.2129545,37.6969697 17.3870455,38.4048485 L25.5627273,43.3260606 L25.6677273,43.3890909" id="Stroke-21" stroke="#005825" stroke-width="2"></path>
            <polyline id="Stroke-23" stroke="#005825" stroke-width="2" points="14.9255152 30.5890909 14.9255152 29.3090909 14.9255152 28.0339394"></polyline>
            <polyline id="Stroke-25" stroke="#005825" stroke-width="2" points="14.9255152 35.8448485 14.9255152 34.5648485 14.9255152 33.289697"></polyline>
            <path d="M17.6065909,22.5018182 C17.8643182,22.1284848 18.2365909,21.8424242 18.6804545,21.6969697 C22.6704545,20.4072727 25.5627273,16.6206061 25.5627273,12.1406061 L25.5627273,4.85333333 L25.5627273,4.8" id="Stroke-27" stroke="#005825" stroke-width="2"></path>
            <path d="M25.5627273,43.4230303 L25.5627273,43.3890909 L25.5627273,43.3260606 L25.5627273,36.16 C25.5627273,31.5636364 22.6990909,27.6412121 18.6852273,26.1381818 C17.8022727,25.8084848 17.2009091,24.9842424 17.2009091,24.0290909 L17.2009091,23.8109091 C17.2009091,23.3357576 17.3488636,22.88 17.6018182,22.5066667" id="Stroke-29" stroke="#005825" stroke-width="2"></path>
            <path d="M4.53886364,4.8 L4.53886364,4.85333333 L4.53886364,12.1406061 C4.53886364,16.6933333 7.52659091,20.5333333 11.6215909,21.76 C12.0654545,21.8957576 12.4281818,22.1672727 12.6954545,22.5212121 C12.9770455,22.9042424 13.1393182,23.3793939 13.1393182,23.8836364 L13.1393182,23.9466667 C13.1393182,24.9163636 12.5140909,25.7551515 11.6120455,26.070303 C7.49318182,27.52 4.53886364,31.4860606 4.53886364,36.16 L4.53886364,43.3890909 L4.53886364,43.4230303" id="Stroke-31" stroke="#005825" stroke-width="2"></path>
        </g>
    </g>
</svg>