<?xml version="1.0" encoding="UTF-8" standalone="no"?>
<svg width="31px" height="30px" viewBox="0 0 31 30" version="1.1" xmlns="http://www.w3.org/2000/svg" xmlns:xlink="http://www.w3.org/1999/xlink">
    <!-- Generator: Sketch 40.1 (33804) - http://www.bohemiancoding.com/sketch -->
    <title>Page 1 Copy 19</title>
    <desc>Created with Sketch.</desc>
    <defs></defs>
    <g id="案例" stroke="none" stroke-width="1" fill="none" fill-rule="evenodd">
        <g id="收藏关注2" transform="translate(-528.000000, -345.000000)" stroke-width="2">
            <g id="Page-1-Copy-19" transform="translate(531.000000, 348.000000)">
                <polygon id="Stroke-2" stroke="#F6A623" fill="#F6A623" points="21.9445306 8.79330612 25.7145306 9.34089796 19.2861633 15.6074286 20.8037143 24.4559184 12.8572653 20.2784082 4.91134694 24.4559184 6.42889796 15.6074286 0 9.34089796 8.88404082 8.05044898 12.8572653 0 16.8304898 8.05044898 19.7732653 8.47759184"></polygon>
                <g id="Page-1" stroke="#3B4046">
                    <polyline id="Stroke-2" points="21.9840082 8.86239184 25.7540082 9.40998367 19.3256408 15.6765143 20.8431918 24.5250041 12.8967429 20.3474939 4.95082449 24.5250041 6.46837551 15.6765143 0.039477551 9.40998367 8.92351837 8.11953469 12.8967429 0.0690857143 16.8699673 8.11953469 19.8127429 8.54667755"></polyline>
                </g>
                <g id="Group-7" transform="translate(8.666667, 10.833333)" stroke="#3B4046" stroke-linecap="square">
                    <path d="M0.692556994,3.58144588 L2.90526909,5.79415798" id="Line"></path>
                    <path d="M3.25,0.361111111 L7.96082465,5.79415798" id="Line" transform="translate(5.777778, 3.250000) scale(1, -1) translate(-5.777778, -3.250000) "></path>
                </g>
            </g>
        </g>
    </g>
</svg>