<?xml version="1.0" encoding="UTF-8" standalone="no"?>
<svg width="32px" height="32px" viewBox="0 0 32 32" version="1.1" xmlns="http://www.w3.org/2000/svg" xmlns:xlink="http://www.w3.org/1999/xlink">
    <!-- Generator: Sketch 40.1 (33804) - http://www.bohemiancoding.com/sketch -->
    <title>Slice 4 Copy</title>
    <desc>Created with Sketch.</desc>
    <defs></defs>
    <g id="案例" stroke="none" stroke-width="1" fill="none" fill-rule="evenodd" stroke-linejoin="bevel">
        <g id="Page-1-Copy" transform="translate(3.000000, 1.000000)" stroke="#24262C" stroke-width="2">
            <path d="M12.9073171,6.25505226 L14.6069686,9.68571429 L18.3888502,10.2376307 C19.0912892,10.3442509 19.3735192,11.2034843 18.8655052,11.6989547 L16.1247387,14.3707317 L16.7707317,18.1400697 C16.8898955,18.8425087 16.1560976,19.3756098 15.5289199,19.0432056 L12.1421603,17.2620209 L8.7554007,19.0432056 C8.128223,19.3756098 7.39442509,18.8425087 7.51358885,18.1400697 L8.15958188,14.3707317 L5.41881533,11.6989547 C4.91707317,11.2034843 5.19303136,10.3442509 5.89547038,10.2376307 L9.68362369,9.68571429 L11.3770035,6.25505226 C11.6905923,5.62160279 12.5937282,5.62160279 12.9073171,6.25505226 L12.9073171,6.25505226 Z" id="Stroke-6" fill="#00B642"></path>
            <path d="M15.4495688,25.8532391 C18.3312406,27.1286279 23.4940767,29.3979094 23.4940767,29.3979094 C23.8013937,29.5358885 24.1463415,29.3101045 24.1463415,28.9777003 L24.1463415,0.673170732 C24.1463415,0.416027875 23.9393728,0.209059233 23.68223,0.209059233 L0.771428571,0.209059233 C0.520557491,0.209059233 0.31358885,0.416027875 0.31358885,0.673170732 L0.31358885,28.8961672 C0.31358885,29.2285714 0.652264808,29.4543554 0.959581882,29.3226481 L12.2425087,24.4181185 L14.1712908,25.2361692" id="Stroke-8"></path>
        </g>
    </g>
</svg>