<?xml version="1.0" encoding="UTF-8" standalone="no"?>
<svg width="39px" height="49px" viewBox="0 0 39 49" version="1.1" xmlns="http://www.w3.org/2000/svg" xmlns:xlink="http://www.w3.org/1999/xlink">
    <!-- Generator: Sketch 40.1 (33804) - http://www.bohemiancoding.com/sketch -->
    <title>Page 1</title>
    <desc>Created with Sketch.</desc>
    <defs></defs>
    <g id="案例" stroke="none" stroke-width="1" fill="none" fill-rule="evenodd" stroke-linejoin="bevel">
        <g id="案例详情2" transform="translate(-572.000000, -1448.000000)" stroke-width="2" stroke="#61676F">
            <g id="Page-1" transform="translate(573.000000, 1449.000000)">
                <polygon id="Stroke-1" points="0.301470886 0.301470886 0.301470886 39.4222781 0.301470886 42.9730216 4.43765144 46.9444629 7.93529722 43.5856882 11.432943 46.9444629 14.9319502 43.5856882 18.429596 46.9444629 21.9272418 43.5856882 25.4248876 46.9444629 28.9225333 43.5856882 32.4201791 46.9444629 36.2990397 43.2208112 36.2990397 39.4222781 36.2990397 0.301470886"></polygon>
                <polyline id="Stroke-13" points="6.19838978 24.941834 8.85987925 27.1624101 13.2996702 22.7212577"></polyline>
                <polyline id="Stroke-13-Copy" points="6 34.2205763 8.66148947 36.4411524 13.1012804 32"></polyline>
                <polyline id="Stroke-13-Copy-2" points="6 15.7794239 8.66148947 18 13.1012804 13.5588476"></polyline>
                <polyline id="Stroke-13-Copy-3" points="6 6.77942389 8.66148947 9 13.1012804 4.5588476"></polyline>
                <path d="M16.0813129,8 L30.5456915,8" id="Stroke-19"></path>
                <path d="M16.0813129,18 L30.5456915,18" id="Stroke-21"></path>
                <path d="M16.0813129,27 L30.5456915,27" id="Stroke-23"></path>
                <path d="M16.0813129,36 L30.5456915,36" id="Stroke-25"></path>
            </g>
        </g>
    </g>
</svg>