<?xml version="1.0" encoding="UTF-8" standalone="no"?>
<svg width="40px" height="40px" viewBox="0 0 40 40" version="1.1" xmlns="http://www.w3.org/2000/svg" xmlns:xlink="http://www.w3.org/1999/xlink">
    <!-- Generator: Sketch 40.1 (33804) - http://www.bohemiancoding.com/sketch -->
    <title>Slice Copy 13</title>
    <desc>Created with Sketch.</desc>
    <defs></defs>
    <g id="案例" stroke="none" stroke-width="1" fill="none" fill-rule="evenodd">
        <g id="案例2-copy" transform="translate(5.000000, 7.000000)" fill="#00B642">
            <polygon id="Fill-1" points="0.148923529 18.3206078 -0.000341176471 18.6797908 -0.000341176471 24.7641046 0.426982353 25.2379608 28.4461 25.2379608 28.8717176 24.7641046 28.8717176 21.7873399 28.6107176 21.4973399 28.6525118 21.4518497 20.3354824 12.2874706 19.7350118 12.2884183 16.0434824 16.3796928 9.92277647 9.58743791 9.34362941 9.5637451"></polygon>
            <polygon id="Fill-2" points="0.426811765 0.000284313726 0.000341176471 0.47319281 0.000341176471 14.9239118 8.48881176 6.83897712 10.9606353 6.94227778 16.0450176 12.5840098 18.7334882 9.60345425 21.3298412 9.5996634 28.8724 17.9101536 28.8724 0.47319281 28.4459294 0.000284313726"></polygon>
            <polygon id="Fill-3" points="0.148923529 18.3206078 -0.000341176471 18.6797908 -0.000341176471 24.7641046 0.426982353 25.2379608 28.4461 25.2379608 28.8717176 24.7641046 28.8717176 21.7873399 28.6107176 21.4973399 28.6525118 21.4518497 20.3354824 12.2874706 19.7350118 12.2884183 16.0434824 16.3796928 9.92277647 9.58743791 9.34362941 9.5637451"></polygon>
        </g>
    </g>
</svg>