<?xml version="1.0" encoding="UTF-8" standalone="no"?>
<svg width="70px" height="70px" viewBox="0 0 70 70" version="1.1" xmlns="http://www.w3.org/2000/svg" xmlns:xlink="http://www.w3.org/1999/xlink">
    <!-- Generator: Sketch 40.1 (33804) - http://www.bohemiancoding.com/sketch -->
    <title>微信朋友圈</title>
    <desc>Created with Sketch.</desc>
    <defs>
        <path d="M0.154166667,1.65 L14.425,16.065 L14.425,1.48333333 C14.425,1.48333333 11.5833333,0.341666667 7.28916667,0.341666667 C2.99583333,0.341666667 0.154166667,1.65 0.154166667,1.65 L0.154166667,1.65 Z" id="path-1"></path>
        <path d="M0.246666667,21.0783333 L10.5566667,10.7683333 C10.5566667,10.7683333 9.355,7.95166667 6.31833333,4.915 C3.28166667,1.87916667 0.3475,0.794166667 0.3475,0.794166667 L0.246666667,21.0783333 L0.246666667,21.0783333 Z" id="path-3"></path>
        <path d="M0.0858333333,14.615 L14.6666667,14.615 C14.6666667,14.615 15.8083333,11.7733333 15.8083333,7.47916667 C15.8083333,3.18583333 14.5,0.344166667 14.5,0.344166667 L0.0858333333,14.615 L0.0858333333,14.615 Z" id="path-5"></path>
        <path d="M10.4658333,10.9491667 C10.4658333,10.9491667 13.2816667,9.7475 16.3183333,6.71083333 C19.355,3.675 20.4391667,0.74 20.4391667,0.74 L0.155,0.638333333 L10.4658333,10.9491667 L10.4658333,10.9491667 Z" id="path-7"></path>
        <path d="M0.154166667,15.1425 C0.154166667,15.1425 2.99583333,16.2841667 7.28916667,16.2841667 C11.5833333,16.2841667 14.425,14.9758333 14.425,14.9758333 L0.154166667,0.561666667 L0.154166667,15.1425 L0.154166667,15.1425 Z" id="path-9"></path>
        <path d="M0.689166667,10.8583333 C0.689166667,10.8583333 1.89166667,13.675 4.9275,16.7108333 C7.96416667,19.7475 10.8983333,20.8308333 10.8983333,20.8308333 L10.9991667,0.5475 L0.689166667,10.8583333 L0.689166667,10.8583333 Z" id="path-11"></path>
        <path d="M1.57916667,0.344166667 C1.57916667,0.344166667 0.4375,3.18583333 0.4375,7.47916667 C0.4375,11.7733333 1.74583333,14.615 1.74583333,14.615 L16.16,0.344166667 L1.57916667,0.344166667 L1.57916667,0.344166667 Z" id="path-13"></path>
        <path d="M4.9275,4.915 C1.89166667,7.95166667 0.806666667,10.8858333 0.806666667,10.8858333 L21.0908333,10.9866667 L10.78,0.676666667 C10.78,0.676666667 7.96416667,1.87916667 4.9275,4.915 L4.9275,4.915 Z" id="path-15"></path>
    </defs>
    <g id="案例" stroke="none" stroke-width="1" fill="none" fill-rule="evenodd">
        <g id="设计师5-copy-4" transform="translate(-285.000000, -815.000000)">
            <g id="微信朋友圈" transform="translate(285.000000, 815.000000)">
                <rect id="Rectangle-740-Copy" fill="#5DDA44" x="0" y="0" width="70" height="70" rx="35"></rect>
                <g id="Group-23" transform="translate(14.166667, 13.333333)">
                    <g id="Group-9" transform="translate(14.166667, 0.000000)">
                        <mask id="mask-2" fill="white">
                            <use xlink:href="#path-1"></use>
                        </mask>
                        <g id="Clip-8"></g>
                        <polygon id="Fill-7" fill="#FFFFFF" mask="url(#mask-2)" points="-4.4525 20.6716667 19.0325 20.6716667 19.0325 -4.265 -4.4525 -4.265"></polygon>
                    </g>
                    <g id="Group-12" transform="translate(30.000000, 1.666667)">
                        <mask id="mask-4" fill="white">
                            <use xlink:href="#path-3"></use>
                        </mask>
                        <g id="Clip-11"></g>
                        <polygon id="Fill-10" fill="#FFFFFF" mask="url(#mask-4)" points="-4.36 25.685 15.1641667 25.685 15.1641667 -3.8125 -4.36 -3.8125"></polygon>
                    </g>
                    <g id="Group-15" transform="translate(26.666667, 14.166667)">
                        <mask id="mask-6" fill="white">
                            <use xlink:href="#path-5"></use>
                        </mask>
                        <g id="Clip-14"></g>
                        <polygon id="Fill-13" fill="#FFFFFF" mask="url(#mask-6)" points="-4.52166667 19.2225 20.415 19.2225 20.415 -4.2625 -4.52166667 -4.2625"></polygon>
                    </g>
                    <g id="Group-18" transform="translate(20.000000, 30.000000)">
                        <mask id="mask-8" fill="white">
                            <use xlink:href="#path-7"></use>
                        </mask>
                        <g id="Clip-17"></g>
                        <polygon id="Fill-16" fill="#FFFFFF" mask="url(#mask-8)" points="-4.45166667 15.5558333 25.0458333 15.5558333 25.0458333 -3.96833333 -4.45166667 -3.96833333"></polygon>
                    </g>
                    <g id="Group-21" transform="translate(14.166667, 26.666667)">
                        <mask id="mask-10" fill="white">
                            <use xlink:href="#path-9"></use>
                        </mask>
                        <g id="Clip-20"></g>
                        <polygon id="Fill-19" fill="#FFFFFF" mask="url(#mask-10)" points="-4.4525 20.8908333 19.0325 20.8908333 19.0325 -4.04583333 -4.4525 -4.04583333"></polygon>
                    </g>
                    <g id="Group-24" transform="translate(1.666667, 20.000000)">
                        <mask id="mask-12" fill="white">
                            <use xlink:href="#path-11"></use>
                        </mask>
                        <g id="Clip-23"></g>
                        <polygon id="Fill-22" fill="#FFFFFF" mask="url(#mask-12)" points="-3.9175 25.4383333 15.6066667 25.4383333 15.6066667 -4.05916667 -3.9175 -4.05916667"></polygon>
                    </g>
                    <g id="Group-27" transform="translate(0.000000, 14.166667)">
                        <mask id="mask-14" fill="white">
                            <use xlink:href="#path-13"></use>
                        </mask>
                        <g id="Clip-26"></g>
                        <polygon id="Fill-25" fill="#FFFFFF" mask="url(#mask-14)" points="-4.16916667 19.2225 20.7675 19.2225 20.7675 -4.2625 -4.16916667 -4.2625"></polygon>
                    </g>
                    <g id="Group-30" transform="translate(1.666667, 1.666667)">
                        <mask id="mask-16" fill="white">
                            <use xlink:href="#path-15"></use>
                        </mask>
                        <g id="Clip-29"></g>
                        <polygon id="Fill-28" fill="#FFFFFF" mask="url(#mask-16)" points="-3.8 15.5941667 25.6975 15.5941667 25.6975 -3.93 -3.8 -3.93"></polygon>
                    </g>
                </g>
            </g>
        </g>
    </g>
</svg>