<?xml version="1.0" encoding="UTF-8" standalone="no"?>
<svg width="40px" height="40px" viewBox="0 0 40 40" version="1.1" xmlns="http://www.w3.org/2000/svg" xmlns:xlink="http://www.w3.org/1999/xlink">
    <!-- Generator: Sketch 40.1 (33804) - http://www.bohemiancoding.com/sketch -->
    <title>Slice Copy 12</title>
    <desc>Created with Sketch.</desc>
    <defs></defs>
    <g id="案例" stroke="none" stroke-width="1" fill="none" fill-rule="evenodd">
        <g id="设计师2-copy" transform="translate(6.000000, 4.000000)">
            <path d="M9.6504,0 C4.6494,0 0.5804,4.069 0.5804,9.07 L0.5804,12.04 C0.5804,13.01 1.2384,13.847 2.1814,14.076 L2.3094,14.107 L2.4364,14.071 C2.5124,14.049 2.6004,14.04 2.7304,14.04 L3.7504,14.04 L3.7504,10.83 C3.7504,10.377 4.0474,9.989 4.4804,9.87 L20.4104,9.89 C21.7704,9.89 23.0894,9.408 24.1194,8.535 C25.0344,7.776 25.6974,6.735 25.9794,5.622 C26.1194,5.147 26.1904,4.639 26.1904,4.11 L26.1904,0 L9.6504,0 Z" id="Fill-1" fill="#00B642"></path>
            <path d="M13.8017,19.2601 L13.8017,23.9851" id="Stroke-3"></path>
            <path d="M9.6504,0 C4.6494,0 0.5804,4.069 0.5804,9.07 L0.5804,12.04 C0.5804,13.01 1.2384,13.847 2.1814,14.076 L2.3094,14.107 L2.4364,14.071 C2.5124,14.049 2.6004,14.04 2.7304,14.04 L3.7504,14.04 L3.7504,10.83 C3.7504,10.377 4.0474,9.989 4.4804,9.87 L20.4104,9.89 C21.7704,9.89 23.0894,9.408 24.1194,8.535 C25.0344,7.776 25.6974,6.735 25.9794,5.622 C26.1194,5.147 26.1904,4.639 26.1904,4.11 L26.1904,0 L9.6504,0 Z" id="Fill-5" fill="#00B642"></path>
            <path d="M9.6504,0 C4.6494,0 0.5804,4.069 0.5804,9.07 L0.5804,12.04 C0.5804,13.01 1.2384,13.847 2.1814,14.076 L2.3094,14.107 L2.4364,14.071 C2.5124,14.049 2.6004,14.04 2.7304,14.04 L3.7504,14.04 L3.7504,10.83 C3.7504,10.377 4.0474,9.989 4.4804,9.87 L20.4104,9.89 C21.7704,9.89 23.0894,9.408 24.1194,8.535 C25.0344,7.776 25.6974,6.735 25.9794,5.622 C26.1194,5.147 26.1904,4.639 26.1904,4.11 L26.1904,0 L9.6504,0 Z" id="Fill-7" fill="#00B642"></path>
            <path d="M9.6504,0 C4.6494,0 0.5804,4.069 0.5804,9.07 L0.5804,12.04 C0.5804,13.01 1.2384,13.847 2.1814,14.076 L2.3094,14.107 L3.7504,14.102 L3.7504,10.83 C3.7504,10.377 4.0474,9.989 4.4804,9.87 L20.4104,9.89 C21.7704,9.89 23.0894,9.408 24.1194,8.535 C25.0344,7.776 25.6974,6.735 25.9794,5.622 C26.1194,5.147 26.1904,4.639 26.1904,4.11 L26.1904,0 L9.6504,0 Z" id="Fill-9" fill="#00B642"></path>
            <path d="M9.6504,0 C4.6494,0 0.5804,4.069 0.5804,9.07 L0.5804,12.04 C0.5804,13.01 1.2384,13.847 2.1814,14.076 L2.3094,14.107 L3.7504,14.102 L3.7504,10.83 C3.7504,10.377 4.0474,9.989 4.4804,9.87 L20.4104,9.89 C21.7704,9.89 23.0894,9.408 24.1194,8.535 C25.0344,7.776 25.6974,6.735 25.9794,5.622 C26.1194,5.147 26.1904,4.639 26.1904,4.11 L26.1904,0 L9.6504,0 Z" id="Fill-11" fill="#00B642"></path>
            <path d="M26.1904,0 L9.6504,0 C4.6494,0 0.5804,4.069 0.5804,9.07 L0.5804,12.04 C0.5804,13.01 1.2384,13.847 2.1814,14.076 L2.3094,14.107 L3.7504,14.102 L3.7504,10.83 C3.7504,10.377 4.0474,9.989 4.4804,9.87 L20.4104,9.89 C21.4314,9.89 22.4304,9.618 23.2994,9.113 L23.2994,13.49 L23.3104,13.99 L23.9194,13.99 C25.0784,13.99 26.0204,13.048 26.0204,11.89 L26.0204,5.439 L26.0204,5.433 C26.1264,5.012 26.1904,4.571 26.1904,4.11 L26.1904,0 Z" id="Fill-13" fill="#00B642"></path>
            <g id="Group-17" transform="translate(0.000000, 12.020000)" fill="#00B642">
                <path d="M23.9199,4.8042 L20.5359,4.8042 L20.4659,1.5312 L20.4659,0.7042 C20.4469,0.7042 6.5849,0.6872 6.5849,0.6872 L6.5849,4.9072 L1.9729,4.9232 L1.5089,4.8092 C0.9599,4.6762 0.4539,4.4542 -0.0001,4.1622 L-0.0001,6.5902 C-0.0001,8.2352 1.1749,9.6092 2.7499,9.9042 C2.7959,14.9282 6.8969,19.0002 11.9299,19.0002 L15.0699,19.0002 C20.1089,19.0002 24.2139,14.9182 24.2489,9.9142 C25.8359,9.6462 27.0609,8.2422 27.0609,6.5902 L27.0609,3.7502 C27.0609,3.7162 27.0539,3.6842 27.0529,3.6512 C26.1979,4.3602 25.1149,4.8042 23.9199,4.8042" id="Fill-15"></path>
            </g>
        </g>
    </g>
</svg>