<?xml version="1.0" encoding="UTF-8" standalone="no"?>
<svg width="224px" height="35px" viewBox="0 0 224 35" version="1.1" xmlns="http://www.w3.org/2000/svg" xmlns:xlink="http://www.w3.org/1999/xlink">
    <!-- Generator: Sketch 40.3 (33839) - http://www.bohemiancoding.com/sketch -->
    <title>Group 54</title>
    <desc>Created with Sketch.</desc>
    <defs>
        <path d="M17.7,34.9 C8.3,34.9 0.7,27.3 0.7,17.9 C0.7,8.5 8.3,0.9 17.7,0.9 C27.1,0.9 34.7,8.5 34.7,17.9 C34.7,27.3 27.1,34.9 17.7,34.9 L17.7,34.9 Z M17.7,6.4 C11.4,6.4 6.2,11.6 6.2,17.9 C6.2,24.2 11.4,29.4 17.7,29.4 C24,29.4 29.2,24.2 29.2,17.9 C29.2,11.6 24,6.4 17.7,6.4 L17.7,6.4 Z" id="path-1"></path>
    </defs>
    <g id="案例" stroke="none" stroke-width="1" fill="none" fill-rule="evenodd">
        <g id="Group-54">
            <path d="M137.6,20.6 L145.3,20.6 C144.4,24.1 141.3,26.1 138.3,26.1 C133.5,26.1 129.5,22.2 129.5,17.3 C129.5,12.4 133.4,8.5 138.3,8.5 C141.4,8.5 144.2,10.1 145.8,12.6 L148.9,9.5 C146.4,6.2 142.5,4.2 138.3,4.2 C131,4.2 125.1,10.1 125.1,17.4 C125.1,24.7 131,30.6 138.3,30.6 C144,30.6 150,26.3 150,18.5 L150,16.3 L142,16.3 L137.6,20.6 L137.6,20.6 Z" id="XMLID_8_" fill="#59564D"></path>
            <path d="M7,4.4 C3.8,5.1 1.5,7.7 1.2,10.7 C1,13.7 2.9,16.4 6.4,17.8 C10.2,19.3 11.3,19.9 12,21.1 C12.5,22 12.4,23.5 11.8,24.6 C11.4,25.4 10.5,26.3 8.8,26.3 C6.3,26.4 4,23.5 3.2,22.2 L0,25.2 C0.4,25.8 1,26.6 1.8,27.3 C3.9,29.4 6.3,30.5 8.6,30.5 L8.9,30.5 C11.7,30.4 14.1,28.9 15.5,26.6 C16.9,24.2 17,21.2 15.8,18.9 C14.3,16.1 11.8,15.1 8,13.6 C7,13.2 5.5,12.4 5.6,11 C5.7,10 6.7,8.9 8,8.7 C10.3,8.2 11.6,9.6 12.2,10.3 L15.3,7.2 C13.7,5.4 10.9,3.6 7,4.4 L7,4.4 Z" id="XMLID_7_" fill="#59564D"></path>
            <polygon id="XMLID_6_" fill="#59564D" points="116.3 30.7 116.3 11.5 116.3 4.6 112 4.6 112 20.1 94.4 3.9 94.5 30 98.8 30 98.8 14.6"></polygon>
            <g id="XMLID_1_" transform="translate(25.000000, 4.000000)" fill="#59564D">
                <polygon id="XMLID_5_" points="8.7 12.4 20.5 0.7 14.5 0.7 4.7 10.5 4.7 0.8 0.4 0.8 0.4 26 4.7 26 4.7 16.4 5.4 15.8 16.6 26 23.5 26"></polygon>
            </g>
            <g id="XMLID_68_" transform="translate(167.000000, 3.000000)" fill="#59564D">
                <polygon id="XMLID_77_" points="1.5 10.1 15.6 10.1 15.6 7 3.9 7"></polygon>
                <polygon id="XMLID_76_" points="45.8 23.5 45.8 18.8 51.6 18.8 51.6 15.6 36.8 15.6 36.8 18.8 42.6 18.8 42.6 23.5 32.1 23.5 32.1 26.6 56.3 26.6 56.3 23.5"></polygon>
                <polygon id="XMLID_75_" points="36.8 13.3 42.2 7.8 38.3 7.8 32.9 13.3"></polygon>
                <polygon id="XMLID_74_" points="35.2 5.4 53.2 5.4 53.2 7 56.3 10.2 56.3 5.4 56.3 5.4 56.3 2.3 47 2.3 46.2 0.7 42.2 0.7 43.1 2.3 32.1 2.3 32.1 3.9 32.1 5.4 32.1 10.2 35.2 7"></polygon>
                <polygon id="XMLID_73_" points="46.2 7.8 51.6 13.3 55.5 13.3 50.1 7.8"></polygon>
                <path d="M8.6,12.5 C5.1,12.5 2.3,15.3 2.3,18.8 C2.3,22.3 5.1,25.1 8.6,25.1 C12.1,25.1 14.9,22.3 14.9,18.8 C14.9,15.3 12,12.5 8.6,12.5 L8.6,12.5 Z M8.6,21.9 C6.9,21.9 5.5,20.5 5.5,18.8 C5.5,17.1 6.9,15.7 8.6,15.7 C10.3,15.7 11.7,17.1 11.7,18.8 C11.7,20.5 10.3,21.9 8.6,21.9 L8.6,21.9 Z" id="XMLID_70_"></path>
                <polygon id="XMLID_69_" points="0.7 4.7 21.9 4.7 21.9 17.9 21.9 19.6 21.6 19.5 17.2 19.5 18 20.3 25 27.4 25 22.9 25 1.5 0.7 1.5"></polygon>
            </g>
            <g id="XMLID_78_" transform="translate(51.000000, 0.000000)">
                <mask id="mask-2" fill="white">
                    <use xlink:href="#path-1"></use>
                </mask>
                <use id="Mask" fill="#C79F62" xlink:href="#path-1"></use>
            </g>
        </g>
    </g>
</svg>