<?xml version="1.0" encoding="UTF-8" standalone="no"?>
<svg width="37px" height="38px" viewBox="0 0 37 38" version="1.1" xmlns="http://www.w3.org/2000/svg" xmlns:xlink="http://www.w3.org/1999/xlink">
    <!-- Generator: Sketch 40.1 (33804) - http://www.bohemiancoding.com/sketch -->
    <title>Group 40</title>
    <desc>Created with Sketch.</desc>
    <defs></defs>
    <g id="案例" stroke="none" stroke-width="1" fill="none" fill-rule="evenodd">
        <g id="首页1" transform="translate(-573.000000, -152.000000)" stroke-width="2" stroke="#FFFFFF">
            <g id="Group-40" transform="translate(573.000000, 152.000000)">
                <g id="周边1" transform="translate(0.505804, 0.739253)">
                    <g id="Group-5">
                        <polyline id="Stroke-1" points="20.1198921 33.8737443 12.2941796 30.0927085 0.818432957 33.4332511 0.818432957 3.90547387 12.6740844 0.527268204 23.9402284 6.42889361 35.2063723 3.45024305 35.2063723 32.8257309 28.6939516 34.3748257"></polyline>
                        <path d="M11.6724115,0.527268204 L11.6724115,18.0929551" id="Stroke-3"></path>
                    </g>
                    <path d="M23.3448231,6.63014493 L23.3448231,11.5427077" id="Stroke-6"></path>
                    <g id="Group-21" transform="translate(0.000000, 5.577383)">
                        <path d="M36.0254603,11.6724115 L34.3879394,11.6724115" id="Stroke-7"></path>
                        <path d="M0,21.3994211 L1.63752092,21.3994211" id="Stroke-9"></path>
                        <path id="Stroke-11"></path>
                        <path d="M23.8195431,7.54045635 C18.921718,7.70748348 15.4894742,11.4721441 15.4894742,16.1046908 C15.4894742,17.5538968 15.8169783,18.8835638 16.4506989,20.0805916 C16.6029884,20.3671577 23.9800201,29.7714404 23.9800201,29.7714404 C23.9800201,29.7714404 31.0852234,20.3671577 31.2375129,20.0805916 C31.8712335,18.8835638 32.1823624,17.5358841 32.1823624,16.086678 C32.1823624,11.4541314 28.7173682,7.70748348 23.8195431,7.54045635 L23.8195431,7.54045635 Z" id="Stroke-13"></path>
                        <path d="M11.6724115,10.8778877 L11.6724115,23.9780551" id="Stroke-19"></path>
                    </g>
                </g>
            </g>
        </g>
    </g>
</svg>