<?xml version="1.0" encoding="UTF-8" standalone="no"?>
<svg width="36px" height="36px" viewBox="0 0 36 36" version="1.1" xmlns="http://www.w3.org/2000/svg" xmlns:xlink="http://www.w3.org/1999/xlink">
    <!-- Generator: Sketch 40.3 (33839) - http://www.bohemiancoding.com/sketch -->
    <title>wxc-icon-ggmessage</title>
    <desc>Created with Sketch.</desc>
    <defs></defs>
    <g id="案例" stroke="none" stroke-width="1" fill="none" fill-rule="evenodd">
        <g id="Group-11-Copy" transform="translate(1.000000, 1.000000)" stroke-width="2" stroke="#005925">
            <g id="Group-10">
                <g id="Group-6" transform="translate(6.000000, 7.937500)" stroke-linecap="round" stroke-linejoin="round">
                    <g id="Group-7" transform="translate(13.709360, 1.441810)">
                        <g id="Group-8">
                            <path d="M2.4575585,16.2790151 C5.21749384,14.6852651 7.0794335,11.7011056 7.0794335,8.27619181 C7.0794335,4.85017888 5.21749384,1.86711853 2.4575585,0.272269397" id="Stroke-3"></path>
                            <path d="M0.190478756,12.515347 C1.63914255,11.654722 2.62067272,10.0873513 2.62067272,8.27597198 C2.62067272,6.46349353 1.63914255,4.89612284 0.190478756,4.03659698" id="Stroke-5"></path>
                        </g>
                    </g>
                    <g id="Group-9" fill="#00B642">
                        <path d="M4.78749412,5.13616126 L1.76108346,5.13616126 C1.0156681,5.13616126 0.411142241,5.76409229 0.411142241,6.53891988 L0.411142241,8.61098884 L0.411142241,9.71685091 L0.411142241,11.7889199 C0.411142241,12.5637475 1.0156681,13.1916785 1.76108346,13.1916785 L4.78749412,13.1916785 L9.78757249,17.5790061 L9.78757249,9.71685091 L9.78757249,8.61098884 L9.78757249,0.748833671 L4.78749412,5.13616126 Z" id="Fill-7"></path>
                    </g>
                </g>
                <path d="M16.9989375,0 C7.609625,0 0,7.6085625 0,16.9989375 C0,26.3893125 7.609625,34 16.9989375,34 C26.38825,34 34,26.38825 34,16.9989375 C34,7.609625 26.38825,0.0010625 16.9989375,0 L16.9989375,0 Z" id="Stroke-1-Copy" stroke-linecap="square"></path>
            </g>
        </g>
    </g>
</svg>