<?xml version="1.0" encoding="UTF-8" standalone="no"?>
<svg width="52px" height="48px" viewBox="0 0 52 48" version="1.1" xmlns="http://www.w3.org/2000/svg" xmlns:xlink="http://www.w3.org/1999/xlink">
    <!-- Generator: Sketch 40.1 (33804) - http://www.bohemiancoding.com/sketch -->
    <title>Page 1</title>
    <desc>Created with Sketch.</desc>
    <defs></defs>
    <g id="Page-1" stroke="none" stroke-width="1" fill="none" fill-rule="evenodd">
        <g transform="translate(1.000000, 0.000000)">
            <path d="M0.227755102,1.00530612 C0.227755102,1.00530612 -2.68653061,16.5093878 14.4206122,17.8257143 L16.3563265,17.3644898 C16.3563265,17.3644898 18.5042857,7.79714286 11.2869388,3.40122449 C6.21857143,0.314489796 0.227755102,1.00530612 0.227755102,1.00530612" id="Fill-1" fill="#00B642"></path>
            <path d="M16.5159184,22.3385714 C16.5159184,22.3385714 21.7210204,28.5446939 34.3322449,29.9457143 C46.9444898,31.3467347 49.747551,23.1395918 49.747551,23.1395918 C49.747551,23.1395918 45.3434694,6.92428571 28.5271429,10.3273469 C28.5271429,10.3273469 17.5169388,13.7304082 16.5159184,22.3385714" id="Fill-3" fill="#B8E986"></path>
            <path d="M15.1879592,32.0505102 C15.1879592,32.0505102 12.1328571,19.7556122 22.8277551,12.6484694 C33.5236735,5.54030612 48.6838776,12.6484694 49.5073469,23.7903061 C49.5073469,23.7903061 45.9369388,29.3607143 36.0053061,29.552551 C26.0746939,29.7443878 20.5359184,25.5137755 20.5359184,25.5137755 C20.5359184,25.5137755 22.8277551,15.9137755 34.2859184,17.4515306" id="Stroke-5" stroke="#005825" stroke-width="2"></path>
            <path d="M14.7839796,17.0665306 C-2.77928571,16.84 0.291122449,1.12163265 0.291122449,1.12163265 C18.435,0.546122449 15.9513265,15.3369388 15.9513265,15.3369388 C15.9513265,15.3369388 12.1319388,12.5185714 10.0309184,9.79816327" id="Stroke-7" stroke="#005825" stroke-width="2"></path>
            <path d="M26.8381633,37.4517347 C26.8381633,35.7231633 25.2136735,34.3211224 23.2095918,34.3211224 C22.8320408,34.3211224 22.4738776,34.3854082 22.1310204,34.4772449 C21.3973469,32.4007143 19.3912245,30.8976531 17.002449,30.8976531 C14.5902041,30.8976531 12.5677551,32.4313265 11.8534694,34.5405102 C11.4769388,34.4027551 11.0697959,34.3211224 10.6412245,34.3211224 C8.78816327,34.3211224 7.28714286,35.7231633 7.28714286,37.4517347 C7.28714286,37.5905102 7.31163265,37.7241837 7.33204082,37.8588776 C5.26469388,38.4517347 3.75857143,40.1741837 3.75857143,42.2313265 C3.75857143,44.7782653 6.05040816,46.8415306 8.87693878,46.8415306 L25.8840816,46.8415306 C28.3085714,46.8415306 30.2759184,44.7405102 30.2759184,42.1466327 C30.2759184,39.9007143 28.7973469,38.0272449 26.824898,37.5660204 C26.8269388,37.5272449 26.8381633,37.4915306 26.8381633,37.4517347 Z" id="Fill-9" fill="#DBEFF9"></path>
            <path d="M26.824898,37.5660204 C26.8269388,37.5272449 26.8381633,37.4915306 26.8381633,37.4517347 C26.8381633,35.7231633 25.2136735,34.3211224 23.2095918,34.3211224 C22.8320408,34.3211224 22.4738776,34.3854082 22.1310204,34.4772449 C21.3973469,32.4007143 19.3912245,30.8976531 17.002449,30.8976531 C14.5902041,30.8976531 12.5677551,32.4313265 11.8534694,34.5405102 C11.4769388,34.4027551 11.0697959,34.3211224 10.6412245,34.3211224 C8.78816327,34.3211224 7.28714286,35.7231633 7.28714286,37.4517347 C7.28714286,37.5905102 7.31163265,37.7241837 7.33204082,37.8588776 C5.26469388,38.4517347 3.75857143,40.1741837 3.75857143,42.2313265 C3.75857143,44.7782653 6.05040816,46.8415306 8.87693878,46.8415306 L25.8840816,46.8415306 C28.3085714,46.8415306 30.2759184,44.7405102 30.2759184,42.1466327 C30.2759184,39.9007143 28.7973469,38.0272449 26.824898,37.5660204 L26.824898,37.5660204 Z" id="Stroke-11" stroke="#005825" stroke-width="2"></path>
            <path d="M25.9092857,18.3113265 L29.3470408,13.9888776" id="Stroke-13" stroke="#005825" stroke-width="2"></path>
            <path d="M40.8759184,17.0665306 C40.8759184,17.0665306 43.024898,17.4338776 44.0269388,20.9236735" id="Stroke-15" stroke="#005825" stroke-width="2"></path>
            <path d="M20.76,38.4576531 C20.76,38.4576531 23.1630612,37.2566327 23.704898,39.752551 C23.704898,39.752551 27.0385714,39.2066327 26.6518367,42.9913265" id="Stroke-17" stroke="#005825" stroke-width="2"></path>
            <path d="M8.07561224,42 L16.0664286,42" id="Stroke-19" stroke="#005825" stroke-width="2"></path>
        </g>
    </g>
</svg>