<?xml version="1.0" encoding="UTF-8" standalone="no"?>
<svg width="40px" height="40px" viewBox="0 0 40 40" version="1.1" xmlns="http://www.w3.org/2000/svg" xmlns:xlink="http://www.w3.org/1999/xlink">
    <!-- Generator: Sketch 40.1 (33804) - http://www.bohemiancoding.com/sketch -->
    <title>Slice Copy 2</title>
    <desc>Created with Sketch.</desc>
    <defs></defs>
    <g id="案例" stroke="none" stroke-width="1" fill="none" fill-rule="evenodd">
        <g id="设计师" transform="translate(7.000000, 5.000000)" stroke="#61676F" stroke-width="2">
            <path d="M23.061,20.1599032 L23.0174516,20.9892581 C23.0174516,25.6295806 19.2558387,29.3921613 14.6145484,29.3921613 L11.5806774,29.3921613 C6.94035484,29.3921613 3.17777419,25.6295806 3.17777419,20.9892581 L3.17777419,12.1541054" id="Stroke-22"></path>
            <path d="M2.61890323,13.0447742 L2.61890323,13.0447742 C1.77019355,13.0447742 1.08212903,12.3567097 1.08212903,11.508 L1.08212903,8.63477419 C1.08212903,4.05445161 4.79535484,0.341225806 9.37567742,0.341225806 L24.8972903,0.341225806 L24.8972903,3.82896774 C24.8972903,6.65187097 22.6095484,8.93864516 19.7866452,8.93864516 L7.29987097,8.93864516" id="Stroke-24"></path>
            <path d="M2.68112903,12.9588387 C2.14007324,12.9588387 1.64565319,13.1577382 1.26696734,13.4864387 C0.811189802,13.8820551 0.523064516,14.465701 0.523064516,15.1169032 L0.523064516,17.8652903 C0.523064516,19.3991613 1.7666129,20.6436774 3.30145161,20.6436774 L3.45725806,20.6436774" id="Stroke-26"></path>
            <path d="M24.7347097,7.96470968 L24.7347097,11.4050323 C24.7347097,12.3030968 23.9779355,13.0143871 23.0818065,12.9592258 L23.5782581,12.9592258 C24.7695484,12.9592258 25.7363226,13.9250323 25.7363226,15.1163226 L25.7363226,17.8656774 C25.7363226,19.3995484 24.4927742,20.6430968 22.9579355,20.6430968 L22.802129,20.6430968" id="Stroke-28"></path>
            <path d="M12.6315789,17.1436452 L12.6315789,21.7162258" id="Stroke-30"></path>
        </g>
    </g>
</svg>